Upgrade_Try-Hairline_Italic.ufo
<glyph name="exclam" format="2">
  <advance width="184"/>
  <unicode hex="0021"/>
  <outline>
    <contour>
      <point x="111" y="164" type="line"/>
      <point x="119" y="164" type="line"/>
      <point x="198" y="724" type="line"/>
      <point x="190" y="724" type="line"/>
    </contour>
    <contour>
      <point x="80" y="0" type="line"/>
      <point x="104" y="0" type="line"/>
      <point x="107" y="24" type="line"/>
      <point x="83" y="24" type="line"/>
    </contour>
  </outline>
</glyph>
<glyph name="quotedbl" format="2">
  <advance width="216"/>
  <unicode hex="0022"/>
  <outline>
    <contour>
      <point x="143" y="560" type="line"/>
      <point x="151" y="560" type="line"/>
      <point x="174" y="724" type="line"/>
      <point x="166" y="724" type="line"/>
    </contour>
    <contour>
      <point x="223" y="560" type="line"/>
      <point x="231" y="560" type="line"/>
      <point x="254" y="724" type="line"/>
      <point x="246" y="724" type="line"/>
    </contour>
  </outline>
</glyph>
<glyph name="dollar" format="2">
  <advance width="507"/>
  <unicode hex="0024"/>
  <outline>
    <contour>
      <point x="303" y="344" type="line" smooth="yes"/>
      <point x="310" y="344" type="line" smooth="yes"/>
      <point x="367" y="748" type="line" smooth="yes"/>
      <point x="360" y="748" type="line" smooth="yes"/>
    </contour>
    <contour>
      <point x="242" y="-90" type="line"/>
      <point x="249" y="-90" type="line"/>
      <point x="310" y="343" type="line"/>
      <point x="303" y="343" type="line"/>
    </contour>
    <component base="S"/>
  </outline>
</glyph>
<glyph name="ampersand" format="2">
  <advance width="593"/>
  <unicode hex="0026"/>
  <outline>
    <contour>
      <point x="490" y="-109" type="curve" smooth="yes"/>
      <point x="510" y="-109"/>
      <point x="537" y="-101"/>
      <point x="556" y="-87" type="curve"/>
      <point x="557" y="-78" type="line"/>
      <point x="536" y="-93"/>
      <point x="509" y="-102"/>
      <point x="490" y="-102" type="curve" smooth="yes"/>
      <point x="447" y="-102"/>
      <point x="424" y="-75"/>
      <point x="431" y="-23" type="curve" smooth="yes"/>
      <point x="482" y="341" type="line"/>
      <point x="621" y="341" type="line"/>
      <point x="622" y="348" type="line"/>
      <point x="483" y="348" type="line"/>
      <point x="505" y="504" type="line"/>
      <point x="497" y="504" type="line"/>
      <point x="475" y="348" type="line"/>
      <point x="318" y="348" type="line" smooth="yes"/>
      <point x="229" y="348"/>
      <point x="162" y="410"/>
      <point x="162" y="493" type="curve" smooth="yes"/>
      <point x="162" y="588"/>
      <point x="237" y="659"/>
      <point x="355" y="659" type="curve" smooth="yes"/>
      <point x="408" y="659"/>
      <point x="461" y="646"/>
      <point x="510" y="623" type="curve"/>
      <point x="511" y="630" type="line"/>
      <point x="460" y="654"/>
      <point x="409" y="666"/>
      <point x="355" y="666" type="curve" smooth="yes"/>
      <point x="241" y="666"/>
      <point x="154" y="600"/>
      <point x="154" y="493" type="curve" smooth="yes"/>
      <point x="154" y="407"/>
      <point x="224" y="342"/>
      <point x="318" y="342" type="curve"/>
      <point x="318" y="347" type="line"/>
      <point x="183" y="347"/>
      <point x="86" y="262"/>
      <point x="86" y="147" type="curve" smooth="yes"/>
      <point x="86" y="52"/>
      <point x="154" y="-8"/>
      <point x="244" y="-8" type="curve" smooth="yes"/>
      <point x="340" y="-8"/>
      <point x="409" y="52"/>
      <point x="446" y="143" type="curve"/>
      <point x="438" y="84" type="line"/>
      <point x="423" y="-22" type="line" smooth="yes"/>
      <point x="416" y="-78"/>
      <point x="442" y="-109"/>
    </contour>
    <contour>
      <point x="244" y="-1" type="curve" smooth="yes"/>
      <point x="151" y="-1"/>
      <point x="94" y="63"/>
      <point x="94" y="147" type="curve" smooth="yes"/>
      <point x="94" y="259"/>
      <point x="190" y="341"/>
      <point x="318" y="341" type="curve" smooth="yes"/>
      <point x="474" y="341" type="line"/>
      <point x="455" y="208" type="line" smooth="yes"/>
      <point x="437" y="84"/>
      <point x="355" y="-1"/>
    </contour>
  </outline>
</glyph>
<glyph name="parenleft" format="2">
  <advance width="306"/>
  <unicode hex="0028"/>
  <outline>
    <contour>
      <point x="226" y="-220" type="curve"/>
      <point x="235" y="-220" type="line"/>
      <point x="161" y="-93"/>
      <point x="122" y="45"/>
      <point x="122" y="189" type="curve" smooth="yes"/>
      <point x="122" y="398"/>
      <point x="204" y="579"/>
      <point x="367" y="724" type="curve"/>
      <point x="356" y="724" type="line"/>
      <point x="195" y="582"/>
      <point x="114" y="401"/>
      <point x="114" y="189" type="curve" smooth="yes"/>
      <point x="114" y="46"/>
      <point x="152" y="-91"/>
    </contour>
  </outline>
</glyph>
<glyph name="parenright" format="2">
  <advance width="306"/>
  <unicode hex="0029"/>
  <outline>
    <contour>
      <point x="10" y="-220" type="curve"/>
      <point x="21" y="-220" type="line"/>
      <point x="181" y="-77"/>
      <point x="263" y="105"/>
      <point x="263" y="319" type="curve" smooth="yes"/>
      <point x="263" y="461"/>
      <point x="225" y="596"/>
      <point x="151" y="724" type="curve"/>
      <point x="142" y="724" type="line"/>
      <point x="216" y="598"/>
      <point x="255" y="462"/>
      <point x="255" y="319" type="curve" smooth="yes"/>
      <point x="255" y="108"/>
      <point x="173" y="-74"/>
    </contour>
  </outline>
</glyph>
<glyph name="hyphen" format="2">
  <advance width="384"/>
  <unicode hex="002D"/>
  <unicode hex="00AD"/>
  <unicode hex="2010"/>
  <outline>
    <contour>
      <point x="81" y="209" type="line"/>
      <point x="361" y="209" type="line"/>
      <point x="362" y="216" type="line"/>
      <point x="82" y="216" type="line"/>
    </contour>
  </outline>
</glyph>
<glyph name="period" format="2">
  <advance width="148"/>
  <unicode hex="002E"/>
  <outline>
    <contour>
      <point x="60" y="0" type="line"/>
      <point x="88" y="0" type="line"/>
      <point x="92" y="28" type="line"/>
      <point x="64" y="28" type="line"/>
    </contour>
  </outline>
</glyph>
<glyph name="slash" format="2">
  <advance width="327"/>
  <unicode hex="002F"/>
  <outline>
    <contour>
      <point x="16" y="0" type="line"/>
      <point x="24" y="0" type="line"/>
      <point x="413" y="724" type="line"/>
      <point x="405" y="724" type="line"/>
    </contour>
  </outline>
</glyph>
<glyph name="zero" format="2">
  <advance width="553"/>
  <unicode hex="0030"/>
  <anchor x="324" y="457" name="top"/>
  <outline>
    <contour>
      <point x="282" y="-8" type="curve" smooth="yes"/>
      <point x="431" y="-8"/>
      <point x="548" y="177"/>
      <point x="548" y="414" type="curve" smooth="yes"/>
      <point x="548" y="570"/>
      <point x="477" y="666"/>
      <point x="363" y="666" type="curve" smooth="yes"/>
      <point x="214" y="666"/>
      <point x="97" y="481"/>
      <point x="97" y="244" type="curve" smooth="yes"/>
      <point x="97" y="88"/>
      <point x="168" y="-8"/>
    </contour>
    <contour>
      <point x="282" y="-1" type="curve" smooth="yes"/>
      <point x="173" y="-1"/>
      <point x="105" y="92"/>
      <point x="105" y="244" type="curve" smooth="yes"/>
      <point x="105" y="477"/>
      <point x="219" y="658"/>
      <point x="363" y="658" type="curve" smooth="yes"/>
      <point x="472" y="658"/>
      <point x="540" y="565"/>
      <point x="540" y="414" type="curve" smooth="yes"/>
      <point x="540" y="181"/>
      <point x="426" y="-1"/>
    </contour>
  </outline>
</glyph>
<glyph name="one" format="2">
  <advance width="338"/>
  <unicode hex="0031"/>
  <outline>
    <contour>
      <point x="186" y="0" type="line"/>
      <point x="194" y="0" type="line"/>
      <point x="288" y="672" type="line"/>
      <point x="134" y="641" type="line"/>
      <point x="133" y="634" type="line"/>
      <point x="279" y="663" type="line"/>
    </contour>
  </outline>
</glyph>
<glyph name="two" format="2">
  <advance width="485"/>
  <unicode hex="0032"/>
  <outline>
    <contour>
      <point x="56" y="0" type="line"/>
      <point x="429" y="0" type="line"/>
      <point x="430" y="8" type="line"/>
      <point x="63" y="8" type="line"/>
      <point x="63" y="4" type="line"/>
      <point x="196" y="112" type="line" smooth="yes"/>
      <point x="423" y="296"/>
      <point x="497" y="391"/>
      <point x="497" y="505" type="curve" smooth="yes"/>
      <point x="497" y="601"/>
      <point x="430" y="666"/>
      <point x="331" y="666" type="curve" smooth="yes"/>
      <point x="275" y="666"/>
      <point x="218" y="648"/>
      <point x="163" y="612" type="curve"/>
      <point x="162" y="603" type="line"/>
      <point x="221" y="640"/>
      <point x="278" y="659"/>
      <point x="331" y="659" type="curve" smooth="yes"/>
      <point x="425" y="659"/>
      <point x="489" y="596"/>
      <point x="489" y="505" type="curve" smooth="yes"/>
      <point x="489" y="395"/>
      <point x="416" y="300"/>
      <point x="193" y="119" type="curve" smooth="yes"/>
      <point x="57" y="8" type="line"/>
    </contour>
  </outline>
</glyph>
<glyph name="three" format="2">
  <advance width="497"/>
  <unicode hex="0033"/>
  <outline>
    <contour>
      <point x="257" y="-8" type="curve" smooth="yes"/>
      <point x="372" y="-8"/>
      <point x="460" y="69"/>
      <point x="460" y="173" type="curve" smooth="yes"/>
      <point x="460" y="277"/>
      <point x="388" y="342"/>
      <point x="247" y="342" type="curve"/>
      <point x="248" y="337" type="line"/>
      <point x="389" y="337"/>
      <point x="494" y="415"/>
      <point x="494" y="520" type="curve" smooth="yes"/>
      <point x="494" y="606"/>
      <point x="429" y="666"/>
      <point x="332" y="666" type="curve" smooth="yes"/>
      <point x="277" y="666"/>
      <point x="220" y="647"/>
      <point x="170" y="609" type="curve"/>
      <point x="169" y="600" type="line"/>
      <point x="221" y="639"/>
      <point x="279" y="659"/>
      <point x="332" y="659" type="curve" smooth="yes"/>
      <point x="424" y="659"/>
      <point x="486" y="602"/>
      <point x="486" y="520" type="curve" smooth="yes"/>
      <point x="486" y="419"/>
      <point x="385" y="343"/>
      <point x="249" y="343" type="curve" smooth="yes"/>
      <point x="226" y="343" type="line"/>
      <point x="225" y="336" type="line"/>
      <point x="247" y="336" type="line" smooth="yes"/>
      <point x="383" y="336"/>
      <point x="452" y="274"/>
      <point x="452" y="173" type="curve" smooth="yes"/>
      <point x="452" y="73"/>
      <point x="368" y="-1"/>
      <point x="257" y="-1" type="curve" smooth="yes"/>
      <point x="185" y="-1"/>
      <point x="117" y="27"/>
      <point x="66" y="73" type="curve"/>
      <point x="65" y="64" type="line"/>
      <point x="121" y="16"/>
      <point x="188" y="-8"/>
    </contour>
  </outline>
</glyph>
<glyph name="four" format="2">
  <advance width="526"/>
  <unicode hex="0034"/>
  <outline>
    <contour>
      <point x="363" y="0" type="line"/>
      <point x="371" y="0" type="line"/>
      <point x="399" y="200" type="line"/>
      <point x="502" y="200" type="line"/>
      <point x="503" y="207" type="line"/>
      <point x="400" y="207" type="line"/>
      <point x="466" y="674" type="line"/>
      <point x="459" y="674" type="line"/>
      <point x="73" y="207" type="line"/>
      <point x="72" y="200" type="line"/>
      <point x="391" y="200" type="line"/>
    </contour>
    <contour>
      <point x="392" y="207" type="line"/>
      <point x="82" y="207" type="line"/>
      <point x="456" y="658" type="line"/>
    </contour>
  </outline>
</glyph>
<glyph name="five" format="2">
  <advance width="487"/>
  <unicode hex="0035"/>
  <outline>
    <contour>
      <point x="238" y="-8" type="curve" smooth="yes"/>
      <point x="363" y="-8"/>
      <point x="457" y="77"/>
      <point x="457" y="203" type="curve" smooth="yes"/>
      <point x="457" y="312"/>
      <point x="383" y="379"/>
      <point x="263" y="379" type="curve" smooth="yes"/>
      <point x="210" y="379"/>
      <point x="172" y="370"/>
      <point x="137" y="357" type="curve"/>
      <point x="142" y="355" type="line"/>
      <point x="206" y="650" type="line"/>
      <point x="498" y="650" type="line"/>
      <point x="499" y="658" type="line"/>
      <point x="200" y="658" type="line"/>
      <point x="133" y="348" type="line"/>
      <point x="171" y="363"/>
      <point x="210" y="372"/>
      <point x="263" y="372" type="curve" smooth="yes"/>
      <point x="378" y="372"/>
      <point x="449" y="308"/>
      <point x="449" y="203" type="curve" smooth="yes"/>
      <point x="449" y="81"/>
      <point x="358" y="-1"/>
      <point x="238" y="-1" type="curve" smooth="yes"/>
      <point x="171" y="-1"/>
      <point x="106" y="28"/>
      <point x="67" y="77" type="curve"/>
      <point x="66" y="67" type="line"/>
      <point x="100" y="25"/>
      <point x="166" y="-8"/>
    </contour>
  </outline>
</glyph>
<glyph name="seven" format="2">
  <advance width="473"/>
  <unicode hex="0037"/>
  <outline>
    <contour>
      <point x="173" y="0" type="line" smooth="yes"/>
      <point x="182" y="0" type="line" smooth="yes"/>
      <point x="508" y="650" type="line" smooth="yes"/>
      <point x="509" y="658" type="line" smooth="yes"/>
      <point x="148" y="658" type="line"/>
      <point x="147" y="650" type="line"/>
      <point x="504" y="650" type="line" smooth="yes"/>
      <point x="502" y="654" type="line" smooth="yes"/>
    </contour>
  </outline>
</glyph>
<glyph name="question" format="2">
  <advance width="393"/>
  <unicode hex="003F"/>
  <outline>
    <contour>
      <point x="164" y="0" type="line"/>
      <point x="188" y="0" type="line"/>
      <point x="191" y="24" type="line"/>
      <point x="167" y="24" type="line"/>
    </contour>
    <contour>
      <point x="197" y="164" type="curve"/>
      <point x="204" y="164" type="line"/>
      <point x="218" y="263"/>
      <point x="247" y="316"/>
      <point x="320" y="391" type="curve" smooth="yes"/>
      <point x="403" y="476"/>
      <point x="435" y="530"/>
      <point x="435" y="592" type="curve" smooth="yes"/>
      <point x="435" y="674"/>
      <point x="379" y="724"/>
      <point x="289" y="724" type="curve" smooth="yes"/>
      <point x="234" y="724"/>
      <point x="174" y="700"/>
      <point x="133" y="662" type="curve"/>
      <point x="132" y="652" type="line"/>
      <point x="175" y="692"/>
      <point x="235" y="717"/>
      <point x="289" y="717" type="curve" smooth="yes"/>
      <point x="374" y="717"/>
      <point x="427" y="670"/>
      <point x="427" y="592" type="curve" smooth="yes"/>
      <point x="427" y="531"/>
      <point x="395" y="478"/>
      <point x="315" y="396" type="curve" smooth="yes"/>
      <point x="240" y="319"/>
      <point x="210" y="267"/>
    </contour>
  </outline>
</glyph>
<glyph name="at" format="2">
  <advance width="804"/>
  <unicode hex="0040"/>
  <outline>
    <contour>
      <point x="390" y="-62" type="curve" smooth="yes"/>
      <point x="454" y="-62"/>
      <point x="513" y="-50"/>
      <point x="566" y="-25" type="curve"/>
      <point x="567" y="-17" type="line"/>
      <point x="512" y="-42"/>
      <point x="452" y="-55"/>
      <point x="390" y="-55" type="curve" smooth="yes"/>
      <point x="228" y="-55"/>
      <point x="108" y="67"/>
      <point x="108" y="230" type="curve" smooth="yes"/>
      <point x="108" y="455"/>
      <point x="274" y="623"/>
      <point x="496" y="623" type="curve" smooth="yes"/>
      <point x="670" y="623"/>
      <point x="777" y="496"/>
      <point x="777" y="338" type="curve" smooth="yes"/>
      <point x="777" y="224"/>
      <point x="706" y="121"/>
      <point x="627" y="121" type="curve" smooth="yes"/>
      <point x="566" y="121"/>
      <point x="539" y="179"/>
      <point x="551" y="272" type="curve" smooth="yes"/>
      <point x="577" y="462" type="line"/>
      <point x="546" y="468"/>
      <point x="520" y="470"/>
      <point x="495" y="470" type="curve" smooth="yes"/>
      <point x="374" y="470"/>
      <point x="284" y="371"/>
      <point x="284" y="238" type="curve" smooth="yes"/>
      <point x="284" y="161"/>
      <point x="332" y="114"/>
      <point x="397" y="114" type="curve" smooth="yes"/>
      <point x="470" y="114"/>
      <point x="537" y="177"/>
      <point x="554" y="302" type="curve"/>
      <point x="544" y="272" type="line"/>
      <point x="531" y="165"/>
      <point x="568" y="114"/>
      <point x="627" y="114" type="curve" smooth="yes"/>
      <point x="711" y="114"/>
      <point x="785" y="220"/>
      <point x="785" y="338" type="curve" smooth="yes"/>
      <point x="785" y="513"/>
      <point x="662" y="630"/>
      <point x="496" y="630" type="curve" smooth="yes"/>
      <point x="270" y="630"/>
      <point x="101" y="459"/>
      <point x="101" y="230" type="curve" smooth="yes"/>
      <point x="101" y="63"/>
      <point x="224" y="-62"/>
    </contour>
    <contour>
      <point x="397" y="121" type="curve" smooth="yes"/>
      <point x="337" y="121"/>
      <point x="292" y="165"/>
      <point x="292" y="238" type="curve" smooth="yes"/>
      <point x="292" y="367"/>
      <point x="379" y="463"/>
      <point x="495" y="463" type="curve" smooth="yes"/>
      <point x="517" y="463"/>
      <point x="542" y="461"/>
      <point x="568" y="456" type="curve"/>
      <point x="547" y="302" type="line" smooth="yes"/>
      <point x="532" y="190"/>
      <point x="473" y="121"/>
    </contour>
  </outline>
</glyph>
<glyph name="A" format="2">
  <advance width="580"/>
  <unicode hex="0041"/>
  <anchor x="379" y="642" name="top"/>
  <anchor x="553" y="16" name="ogonek"/>
  <outline>
    <contour>
      <point x="24" y="0" type="line"/>
      <point x="32" y="0" type="line"/>
      <point x="171" y="263" type="line"/>
      <point x="168" y="263" type="line"/>
      <point x="487" y="263" type="line"/>
      <point x="483" y="263" type="line"/>
      <point x="548" y="0" type="line"/>
      <point x="556" y="0" type="line"/>
      <point x="388" y="670" type="line"/>
      <point x="379" y="670" type="line"/>
    </contour>
    <contour>
      <point x="175" y="270" type="line"/>
      <point x="349" y="598" type="line"/>
      <point x="384" y="666" type="line"/>
      <point x="381" y="666" type="line"/>
      <point x="398" y="598" type="line"/>
      <point x="481" y="270" type="line"/>
      <point x="485" y="270" type="line"/>
      <point x="170" y="270" type="line"/>
    </contour>
  </outline>
</glyph>
<glyph name="B" format="2">
  <advance width="511"/>
  <unicode hex="0042"/>
  <outline>
    <contour>
      <point x="92" y="0" type="line"/>
      <point x="266" y="0" type="line" smooth="yes"/>
      <point x="395" y="0"/>
      <point x="475" y="72"/>
      <point x="475" y="189" type="curve" smooth="yes"/>
      <point x="475" y="279"/>
      <point x="395" y="341"/>
      <point x="295" y="339" type="curve"/>
      <point x="284" y="334" type="line"/>
      <point x="414" y="334"/>
      <point x="500" y="404"/>
      <point x="500" y="508" type="curve" smooth="yes"/>
      <point x="500" y="594"/>
      <point x="437" y="658"/>
      <point x="334" y="658" type="curve" smooth="yes"/>
      <point x="184" y="658" type="line"/>
    </contour>
    <contour>
      <point x="148" y="340" type="line"/>
      <point x="191" y="651" type="line"/>
      <point x="334" y="651" type="line" smooth="yes"/>
      <point x="424" y="651"/>
      <point x="492" y="596"/>
      <point x="492" y="508" type="curve" smooth="yes"/>
      <point x="492" y="412"/>
      <point x="413" y="340"/>
      <point x="284" y="340" type="curve" smooth="yes"/>
    </contour>
    <contour>
      <point x="101" y="7" type="line"/>
      <point x="147" y="333" type="line"/>
      <point x="296" y="333" type="line" smooth="yes"/>
      <point x="394" y="333"/>
      <point x="467" y="272"/>
      <point x="467" y="189" type="curve" smooth="yes"/>
      <point x="467" y="68"/>
      <point x="381" y="7"/>
      <point x="266" y="7" type="curve" smooth="yes"/>
    </contour>
  </outline>
</glyph>
<glyph name="C" format="2">
  <advance width="671"/>
  <unicode hex="0043"/>
  <anchor x="454" y="642" name="top"/>
  <anchor x="404" y="16" name="bottom"/>
  <outline>
    <contour>
      <point x="411" y="-8" type="curve" smooth="yes"/>
      <point x="480" y="-8"/>
      <point x="568" y="14"/>
      <point x="634" y="51" type="curve"/>
      <point x="635" y="59" type="line"/>
      <point x="569" y="22"/>
      <point x="481" y="-1"/>
      <point x="411" y="-1" type="curve" smooth="yes"/>
      <point x="223" y="-1"/>
      <point x="112" y="107"/>
      <point x="112" y="282" type="curve" smooth="yes"/>
      <point x="112" y="498"/>
      <point x="258" y="658"/>
      <point x="455" y="659" type="curve" smooth="yes"/>
      <point x="542" y="659"/>
      <point x="611" y="637"/>
      <point x="685" y="595" type="curve"/>
      <point x="686" y="603" type="line"/>
      <point x="609" y="645"/>
      <point x="541" y="666"/>
      <point x="455" y="666" type="curve" smooth="yes"/>
      <point x="253" y="666"/>
      <point x="104" y="502"/>
      <point x="104" y="282" type="curve" smooth="yes"/>
      <point x="104" y="103"/>
      <point x="218" y="-8"/>
    </contour>
  </outline>
</glyph>
<glyph name="D" format="2">
  <advance width="693"/>
  <unicode hex="0044"/>
  <anchor x="350" y="642" name="top"/>
  <outline>
    <contour>
      <point x="92" y="0" type="line"/>
      <point x="262" y="0" type="line" smooth="yes"/>
      <point x="521" y="0"/>
      <point x="681" y="142"/>
      <point x="681" y="371" type="curve" smooth="yes"/>
      <point x="681" y="561"/>
      <point x="572" y="658"/>
      <point x="356" y="658" type="curve" smooth="yes"/>
      <point x="184" y="658" type="line"/>
    </contour>
    <contour>
      <point x="101" y="7" type="line"/>
      <point x="191" y="651" type="line"/>
      <point x="356" y="651" type="line" smooth="yes"/>
      <point x="566" y="651"/>
      <point x="673" y="557"/>
      <point x="673" y="371" type="curve" smooth="yes"/>
      <point x="673" y="146"/>
      <point x="516" y="7"/>
      <point x="262" y="7" type="curve" smooth="yes"/>
    </contour>
  </outline>
</glyph>
<glyph name="E" format="2">
  <advance width="484"/>
  <unicode hex="0045"/>
  <anchor x="342" y="642" name="top"/>
  <anchor x="423" y="16" name="ogonek"/>
  <outline>
    <contour>
      <point x="92" y="0" type="line"/>
      <point x="424" y="0" type="line"/>
      <point x="425" y="7" type="line"/>
      <point x="101" y="7" type="line"/>
      <point x="146" y="330" type="line"/>
      <point x="444" y="330" type="line"/>
      <point x="445" y="337" type="line"/>
      <point x="147" y="337" type="line"/>
      <point x="191" y="651" type="line"/>
      <point x="496" y="651" type="line"/>
      <point x="497" y="658" type="line"/>
      <point x="184" y="658" type="line"/>
    </contour>
  </outline>
</glyph>
<glyph name="F" format="2">
  <advance width="423"/>
  <unicode hex="0046"/>
  <outline>
    <contour>
      <point x="92" y="0" type="line"/>
      <point x="100" y="0" type="line"/>
      <point x="146" y="330" type="line"/>
      <point x="416" y="330" type="line"/>
      <point x="417" y="337" type="line"/>
      <point x="147" y="337" type="line"/>
      <point x="191" y="651" type="line"/>
      <point x="482" y="651" type="line"/>
      <point x="483" y="658" type="line"/>
      <point x="184" y="658" type="line"/>
    </contour>
  </outline>
</glyph>
<glyph name="G" format="2">
  <advance width="683"/>
  <unicode hex="0047"/>
  <anchor x="462" y="642" name="top"/>
  <anchor x="413" y="16" name="bottom"/>
  <outline>
    <contour>
      <point x="409" y="-8" type="curve" smooth="yes"/>
      <point x="480" y="-8"/>
      <point x="553" y="6"/>
      <point x="615" y="33" type="curve"/>
      <point x="653" y="300" type="line"/>
      <point x="484" y="300" type="line"/>
      <point x="483" y="293" type="line"/>
      <point x="644" y="293" type="line"/>
      <point x="608" y="38" type="line"/>
      <point x="550" y="13"/>
      <point x="481" y="-1"/>
      <point x="409" y="-1" type="curve" smooth="yes"/>
      <point x="226" y="-1"/>
      <point x="112" y="109"/>
      <point x="112" y="282" type="curve" smooth="yes"/>
      <point x="112" y="498"/>
      <point x="253" y="659"/>
      <point x="456" y="659" type="curve" smooth="yes"/>
      <point x="537" y="659"/>
      <point x="618" y="635"/>
      <point x="685" y="595" type="curve"/>
      <point x="686" y="603" type="line"/>
      <point x="618" y="643"/>
      <point x="537" y="666"/>
      <point x="456" y="666" type="curve" smooth="yes"/>
      <point x="249" y="666"/>
      <point x="104" y="502"/>
      <point x="104" y="282" type="curve" smooth="yes"/>
      <point x="104" y="105"/>
      <point x="221" y="-8"/>
    </contour>
  </outline>
</glyph>
<glyph name="H" format="2">
  <advance width="682"/>
  <unicode hex="0048"/>
  <guideline x="333" y="0" angle="82.0" name="" identifier="JMBvttS7Pj"/>
  <anchor x="431" y="642" name="top"/>
  <outline>
    <contour>
      <point x="92" y="0" type="line"/>
      <point x="100" y="0" type="line"/>
      <point x="146" y="332" type="line"/>
      <point x="629" y="332" type="line"/>
      <point x="582" y="0" type="line"/>
      <point x="590" y="0" type="line"/>
      <point x="682" y="658" type="line"/>
      <point x="674" y="658" type="line"/>
      <point x="630" y="339" type="line"/>
      <point x="147" y="339" type="line"/>
      <point x="192" y="658" type="line"/>
      <point x="184" y="658" type="line"/>
    </contour>
  </outline>
</glyph>
<glyph name="J" format="2">
  <advance width="193"/>
  <unicode hex="004A"/>
  <anchor x="187" y="642" name="top"/>
  <outline>
    <contour>
      <point x="-35" y="-220" type="line" smooth="yes"/>
      <point x="33" y="-220"/>
      <point x="75" y="-181"/>
      <point x="86" y="-103" type="curve" smooth="yes"/>
      <point x="193" y="658" type="line"/>
      <point x="185" y="658" type="line"/>
      <point x="78" y="-103" type="line" smooth="yes"/>
      <point x="68" y="-176"/>
      <point x="29" y="-213"/>
      <point x="-34" y="-213" type="curve" smooth="yes"/>
      <point x="-42" y="-213" type="line"/>
      <point x="-43" y="-220" type="line"/>
    </contour>
  </outline>
</glyph>
<glyph name="K" format="2">
  <advance width="522"/>
  <unicode hex="004B"/>
  <anchor x="259" y="16" name="bottom"/>
  <outline>
    <contour>
      <point x="92" y="0" type="line"/>
      <point x="100" y="0" type="line"/>
      <point x="147" y="334" type="line"/>
      <point x="146" y="334" type="line"/>
      <point x="459" y="0" type="line"/>
      <point x="470" y="0" type="line"/>
      <point x="149" y="342" type="line"/>
      <point x="149" y="333" type="line"/>
      <point x="558" y="658" type="line"/>
      <point x="546" y="658" type="line"/>
      <point x="145" y="339" type="line"/>
      <point x="148" y="340" type="line"/>
      <point x="193" y="658" type="line"/>
      <point x="185" y="658" type="line"/>
    </contour>
  </outline>
</glyph>
<glyph name="M" format="2">
  <advance width="726"/>
  <unicode hex="004D"/>
  <outline>
    <contour>
      <point x="92" y="0" type="line"/>
      <point x="99" y="0" type="line"/>
      <point x="181" y="587" type="line"/>
      <point x="191" y="655" type="line"/>
      <point x="187" y="655" type="line"/>
      <point x="211" y="587" type="line"/>
      <point x="377" y="124" type="line"/>
      <point x="383" y="124" type="line"/>
      <point x="679" y="587" type="line" smooth="yes"/>
      <point x="722" y="653" type="line"/>
      <point x="718" y="653" type="line"/>
      <point x="708" y="587" type="line"/>
      <point x="626" y="0" type="line"/>
      <point x="634" y="0" type="line"/>
      <point x="726" y="658" type="line"/>
      <point x="716" y="658" type="line"/>
      <point x="419" y="194" type="line"/>
      <point x="380" y="133" type="line"/>
      <point x="382" y="133" type="line"/>
      <point x="361" y="193" type="line"/>
      <point x="194" y="658" type="line"/>
      <point x="184" y="658" type="line"/>
    </contour>
  </outline>
</glyph>
<glyph name="N" format="2">
  <advance width="704"/>
  <unicode hex="004E"/>
  <anchor x="433" y="642" name="top"/>
  <anchor x="352" y="0" name="bottom"/>
  <outline>
    <contour>
      <point x="92" y="0" type="line"/>
      <point x="99" y="0" type="line"/>
      <point x="181" y="587" type="line"/>
      <point x="191" y="657" type="line"/>
      <point x="185" y="656" type="line"/>
      <point x="229" y="586" type="line"/>
      <point x="603" y="0" type="line"/>
      <point x="612" y="0" type="line"/>
      <point x="704" y="658" type="line"/>
      <point x="697" y="658" type="line"/>
      <point x="615" y="72" type="line"/>
      <point x="605" y="6" type="line"/>
      <point x="608" y="7" type="line"/>
      <point x="567" y="72" type="line"/>
      <point x="193" y="658" type="line"/>
      <point x="184" y="658" type="line"/>
    </contour>
  </outline>
</glyph>
<glyph name="O" format="2">
  <advance width="754"/>
  <unicode hex="004F"/>
  <anchor x="450" y="642" name="top"/>
  <outline>
    <contour>
      <point x="392" y="-8" type="curve" smooth="yes"/>
      <point x="592" y="-8"/>
      <point x="742" y="154"/>
      <point x="742" y="371" type="curve" smooth="yes"/>
      <point x="742" y="540"/>
      <point x="619" y="666"/>
      <point x="455" y="666" type="curve" smooth="yes"/>
      <point x="255" y="666"/>
      <point x="105" y="504"/>
      <point x="105" y="287" type="curve" smooth="yes"/>
      <point x="105" y="118"/>
      <point x="228" y="-8"/>
    </contour>
    <contour>
      <point x="392" y="-1" type="curve" smooth="yes"/>
      <point x="232" y="-1"/>
      <point x="113" y="122"/>
      <point x="113" y="287" type="curve" smooth="yes"/>
      <point x="113" y="500"/>
      <point x="259" y="659"/>
      <point x="455" y="659" type="curve" smooth="yes"/>
      <point x="615" y="659"/>
      <point x="734" y="536"/>
      <point x="734" y="371" type="curve" smooth="yes"/>
      <point x="734" y="158"/>
      <point x="588" y="-1"/>
    </contour>
  </outline>
</glyph>
<glyph name="P" format="2">
  <advance width="445"/>
  <unicode hex="0050"/>
  <outline>
    <contour>
      <point x="92" y="0" type="line"/>
      <point x="100" y="0" type="line"/>
      <point x="139" y="280" type="line"/>
      <point x="216" y="280" type="line" smooth="yes"/>
      <point x="357" y="280"/>
      <point x="460" y="369"/>
      <point x="460" y="488" type="curve" smooth="yes"/>
      <point x="460" y="585"/>
      <point x="388" y="658"/>
      <point x="268" y="658" type="curve" smooth="yes"/>
      <point x="184" y="658" type="line"/>
    </contour>
    <contour>
      <point x="140" y="287" type="line"/>
      <point x="191" y="651" type="line"/>
      <point x="268" y="651" type="line" smooth="yes"/>
      <point x="375" y="651"/>
      <point x="452" y="589"/>
      <point x="452" y="488" type="curve" smooth="yes"/>
      <point x="452" y="373"/>
      <point x="352" y="287"/>
      <point x="216" y="287" type="curve" smooth="yes"/>
    </contour>
  </outline>
</glyph>
<glyph name="Q" format="2">
  <advance width="754"/>
  <unicode hex="0051"/>
  <guideline x="732" y="265" angle="82.0" identifier="kRPqQ8vboa"/>
  <outline>
    <contour>
      <point x="677" y="-123" type="curve"/>
      <point x="678" y="-115" type="line"/>
      <point x="581" y="-90"/>
      <point x="498" y="-51"/>
      <point x="438" y="-2" type="curve"/>
      <point x="428" y="-3" type="line"/>
      <point x="494" y="-58"/>
      <point x="578" y="-98"/>
    </contour>
    <component base="O"/>
  </outline>
</glyph>
<glyph name="R" format="2">
  <advance width="507"/>
  <unicode hex="0052"/>
  <anchor x="286" y="642" name="top"/>
  <anchor x="267" y="16" name="bottom"/>
  <outline>
    <contour>
      <point x="92" y="0" type="line"/>
      <point x="100" y="0" type="line"/>
      <point x="147" y="332" type="line"/>
      <point x="225" y="332" type="line" smooth="yes"/>
      <point x="277" y="332"/>
      <point x="329" y="298"/>
      <point x="352" y="240" type="curve" smooth="yes"/>
      <point x="446" y="0" type="line"/>
      <point x="455" y="0" type="line"/>
      <point x="360" y="241" type="line" smooth="yes"/>
      <point x="334" y="306"/>
      <point x="282" y="338"/>
      <point x="225" y="338" type="curve"/>
      <point x="247" y="333" type="line"/>
      <point x="369" y="331"/>
      <point x="460" y="407"/>
      <point x="460" y="511" type="curve" smooth="yes"/>
      <point x="460" y="595"/>
      <point x="392" y="658"/>
      <point x="289" y="658" type="curve" smooth="yes"/>
      <point x="185" y="658" type="line"/>
    </contour>
    <contour>
      <point x="148" y="339" type="line"/>
      <point x="192" y="651" type="line"/>
      <point x="289" y="651" type="line" smooth="yes"/>
      <point x="387" y="651"/>
      <point x="452" y="591"/>
      <point x="452" y="511" type="curve" smooth="yes"/>
      <point x="452" y="412"/>
      <point x="364" y="339"/>
      <point x="247" y="339" type="curve" smooth="yes"/>
    </contour>
  </outline>
</glyph>
<glyph name="S" format="2">
  <advance width="507"/>
  <unicode hex="0053"/>
  <anchor x="347" y="642" name="top"/>
  <anchor x="263" y="16" name="bottom"/>
  <outline>
    <contour>
      <point x="260" y="-8" type="curve" smooth="yes"/>
      <point x="375" y="-8"/>
      <point x="460" y="71"/>
      <point x="460" y="176" type="curve" smooth="yes"/>
      <point x="460" y="255"/>
      <point x="417" y="304"/>
      <point x="312" y="346" type="curve" smooth="yes"/>
      <point x="297" y="352" type="line" smooth="yes"/>
      <point x="207" y="388"/>
      <point x="170" y="431"/>
      <point x="170" y="499" type="curve" smooth="yes"/>
      <point x="170" y="591"/>
      <point x="246" y="660"/>
      <point x="350" y="660" type="curve" smooth="yes"/>
      <point x="405" y="660"/>
      <point x="460" y="642"/>
      <point x="512" y="606" type="curve"/>
      <point x="513" y="614" type="line"/>
      <point x="463" y="649"/>
      <point x="407" y="667"/>
      <point x="350" y="667" type="curve" smooth="yes"/>
      <point x="241" y="667"/>
      <point x="162" y="595"/>
      <point x="162" y="499" type="curve" smooth="yes"/>
      <point x="162" y="427"/>
      <point x="201" y="382"/>
      <point x="295" y="344" type="curve" smooth="yes"/>
      <point x="310" y="338" type="line" smooth="yes"/>
      <point x="411" y="297"/>
      <point x="452" y="250"/>
      <point x="452" y="176" type="curve" smooth="yes"/>
      <point x="452" y="75"/>
      <point x="370" y="-1"/>
      <point x="260" y="-1" type="curve" smooth="yes"/>
      <point x="197" y="-1"/>
      <point x="134" y="18"/>
      <point x="77" y="51" type="curve"/>
      <point x="76" y="42" type="line"/>
      <point x="136" y="9"/>
      <point x="198" y="-8"/>
    </contour>
  </outline>
</glyph>
<glyph name="T" format="2">
  <advance width="536"/>
  <unicode hex="0054"/>
  <anchor x="359" y="642" name="top"/>
  <anchor x="270" y="16" name="bottom"/>
  <outline>
    <contour>
      <point x="264" y="0" type="line"/>
      <point x="272" y="0" type="line"/>
      <point x="363" y="651" type="line"/>
      <point x="607" y="651" type="line"/>
      <point x="608" y="658" type="line"/>
      <point x="112" y="658" type="line"/>
      <point x="111" y="651" type="line"/>
      <point x="355" y="651" type="line"/>
    </contour>
  </outline>
</glyph>
<glyph name="U" format="2">
  <advance width="656"/>
  <unicode hex="0055"/>
  <anchor x="418" y="642" name="top"/>
  <outline>
    <contour>
      <point x="341" y="-8" type="curve" smooth="yes"/>
      <point x="477" y="-8"/>
      <point x="584" y="95"/>
      <point x="606" y="252" type="curve" smooth="yes"/>
      <point x="664" y="658" type="line"/>
      <point x="657" y="658" type="line"/>
      <point x="599" y="252" type="line" smooth="yes"/>
      <point x="577" y="100"/>
      <point x="474" y="-1"/>
      <point x="341" y="-1" type="curve" smooth="yes"/>
      <point x="190" y="-1"/>
      <point x="105" y="100"/>
      <point x="127" y="252" type="curve" smooth="yes"/>
      <point x="185" y="658" type="line"/>
      <point x="177" y="658" type="line"/>
      <point x="119" y="252" type="line" smooth="yes"/>
      <point x="97" y="95"/>
      <point x="185" y="-8"/>
    </contour>
  </outline>
</glyph>
<glyph name="V" format="2">
  <advance width="580"/>
  <unicode hex="0056"/>
  <outline>
    <contour>
      <point x="287" y="0" type="line"/>
      <point x="294" y="0" type="line"/>
      <point x="648" y="658" type="line"/>
      <point x="640" y="658" type="line"/>
      <point x="323" y="69" type="line"/>
      <point x="289" y="5" type="line"/>
      <point x="294" y="4" type="line"/>
      <point x="277" y="70" type="line"/>
      <point x="124" y="658" type="line"/>
      <point x="116" y="658" type="line"/>
    </contour>
  </outline>
</glyph>
<glyph name="W" format="2">
  <advance width="888"/>
  <unicode hex="0057"/>
  <anchor x="530" y="642" name="top"/>
  <outline>
    <contour>
      <point x="233" y="0" type="line"/>
      <point x="240" y="0" type="line"/>
      <point x="510" y="589" type="line"/>
      <point x="539" y="653" type="line"/>
      <point x="533" y="655" type="line"/>
      <point x="545" y="588" type="line"/>
      <point x="648" y="0" type="line"/>
      <point x="655" y="0" type="line"/>
      <point x="956" y="658" type="line"/>
      <point x="948" y="658" type="line"/>
      <point x="679" y="70" type="line"/>
      <point x="651" y="7" type="line"/>
      <point x="655" y="7" type="line"/>
      <point x="644" y="71" type="line"/>
      <point x="541" y="658" type="line"/>
      <point x="534" y="658" type="line"/>
      <point x="264" y="70" type="line"/>
      <point x="235" y="5" type="line"/>
      <point x="240" y="5" type="line"/>
      <point x="228" y="73" type="line"/>
      <point x="124" y="658" type="line"/>
      <point x="116" y="658" type="line"/>
    </contour>
  </outline>
</glyph>
<glyph name="X" format="2">
  <advance width="572"/>
  <unicode hex="0058"/>
  <outline>
    <contour>
      <point x="52" y="0" type="line"/>
      <point x="61" y="0" type="line"/>
      <point x="293" y="281" type="line"/>
      <point x="334" y="331" type="line"/>
      <point x="336" y="334" type="line"/>
      <point x="598" y="658" type="line"/>
      <point x="589" y="658" type="line"/>
      <point x="377" y="396" type="line"/>
      <point x="333" y="341" type="line"/>
      <point x="330" y="337" type="line"/>
    </contour>
    <contour>
      <point x="511" y="0" type="line"/>
      <point x="520" y="0" type="line"/>
      <point x="337" y="337" type="line"/>
      <point x="336" y="339" type="line"/>
      <point x="306" y="397" type="line"/>
      <point x="167" y="658" type="line"/>
      <point x="158" y="658" type="line"/>
      <point x="330" y="335" type="line"/>
      <point x="331" y="333" type="line"/>
      <point x="359" y="281" type="line"/>
    </contour>
  </outline>
</glyph>
<glyph name="Y" format="2">
  <advance width="518"/>
  <unicode hex="0059"/>
  <anchor x="340" y="642" name="top"/>
  <outline>
    <contour>
      <point x="255" y="0" type="line"/>
      <point x="263" y="0" type="line"/>
      <point x="307" y="314" type="line"/>
      <point x="304" y="306" type="line"/>
      <point x="590" y="658" type="line"/>
      <point x="581" y="658" type="line"/>
      <point x="339" y="360" type="line"/>
      <point x="300" y="313" type="line"/>
      <point x="306" y="312" type="line"/>
      <point x="281" y="360" type="line"/>
      <point x="121" y="658" type="line"/>
      <point x="112" y="658" type="line"/>
      <point x="301" y="305" type="line"/>
      <point x="299" y="314" type="line"/>
    </contour>
  </outline>
</glyph>
<glyph name="Z" format="2">
  <advance width="604"/>
  <unicode hex="005A"/>
  <anchor x="397" y="642" name="top"/>
  <outline>
    <contour>
      <point x="77" y="0" type="line"/>
      <point x="528" y="0" type="line"/>
      <point x="529" y="7" type="line"/>
      <point x="82" y="7" type="line"/>
      <point x="83" y="2" type="line"/>
      <point x="132" y="61" type="line"/>
      <point x="619" y="651" type="line"/>
      <point x="619" y="658" type="line"/>
      <point x="168" y="658" type="line"/>
      <point x="167" y="651" type="line"/>
      <point x="612" y="651" type="line"/>
      <point x="613" y="656" type="line"/>
      <point x="564" y="597" type="line"/>
      <point x="77" y="7" type="line"/>
    </contour>
  </outline>
</glyph>
<glyph name="bracketleft" format="2">
  <advance width="276"/>
  <unicode hex="005B"/>
  <outline>
    <contour>
      <point x="49" y="-220" type="line"/>
      <point x="185" y="-220" type="line"/>
      <point x="186" y="-213" type="line"/>
      <point x="58" y="-213" type="line"/>
      <point x="189" y="717" type="line"/>
      <point x="317" y="717" type="line"/>
      <point x="318" y="724" type="line"/>
      <point x="182" y="724" type="line"/>
    </contour>
  </outline>
</glyph>
<glyph name="bracketright" format="2">
  <advance width="277"/>
  <unicode hex="005D"/>
  <outline>
    <contour>
      <point x="30" y="-220" type="line"/>
      <point x="166" y="-220" type="line"/>
      <point x="298" y="724" type="line"/>
      <point x="162" y="724" type="line"/>
      <point x="161" y="717" type="line"/>
      <point x="289" y="717" type="line"/>
      <point x="159" y="-213" type="line"/>
      <point x="31" y="-213" type="line"/>
    </contour>
  </outline>
</glyph>
<glyph name="a" format="2">
  <advance width="493"/>
  <unicode hex="0061"/>
  <anchor x="328" y="446" name="top"/>
  <anchor x="484" y="0" name="ogonek"/>
  <outline>
    <contour>
      <point x="228" y="-8" type="curve" smooth="yes"/>
      <point x="328" y="-8"/>
      <point x="393" y="76"/>
      <point x="429" y="187" type="curve"/>
      <point x="419" y="123" type="line" smooth="yes"/>
      <point x="412" y="76"/>
      <point x="409" y="35"/>
      <point x="409" y="0" type="curve"/>
      <point x="417" y="0" type="line"/>
      <point x="417" y="34"/>
      <point x="420" y="75"/>
      <point x="427" y="123" type="curve" smooth="yes"/>
      <point x="474" y="451" type="line"/>
      <point x="432" y="465"/>
      <point x="396" y="470"/>
      <point x="356" y="470" type="curve" smooth="yes"/>
      <point x="199" y="470"/>
      <point x="84" y="336"/>
      <point x="84" y="176" type="curve" smooth="yes"/>
      <point x="84" y="71"/>
      <point x="141" y="-8"/>
    </contour>
    <contour>
      <point x="228" y="-1" type="curve" smooth="yes"/>
      <point x="146" y="-1"/>
      <point x="92" y="75"/>
      <point x="92" y="176" type="curve" smooth="yes"/>
      <point x="92" y="332"/>
      <point x="204" y="463"/>
      <point x="356" y="463" type="curve" smooth="yes"/>
      <point x="398" y="463"/>
      <point x="431" y="457"/>
      <point x="465" y="446" type="curve"/>
      <point x="439" y="263" type="line" smooth="yes"/>
      <point x="417" y="112"/>
      <point x="332" y="-1"/>
    </contour>
  </outline>
</glyph>
<glyph name="b" format="2">
  <advance width="495"/>
  <unicode hex="0062"/>
  <outline>
    <contour>
      <point x="208" y="-10" type="curve" smooth="yes"/>
      <point x="363" y="-10"/>
      <point x="475" y="116"/>
      <point x="475" y="284" type="curve" smooth="yes"/>
      <point x="475" y="399"/>
      <point x="415" y="470"/>
      <point x="314" y="470" type="curve" smooth="yes"/>
      <point x="203" y="470"/>
      <point x="152" y="384"/>
      <point x="124" y="289" type="curve"/>
      <point x="134" y="357" type="line"/>
      <point x="186" y="724" type="line"/>
      <point x="178" y="724" type="line"/>
      <point x="77" y="8" type="line"/>
      <point x="130" y="-5"/>
      <point x="171" y="-10"/>
    </contour>
    <contour>
      <point x="208" y="-3" type="curve" smooth="yes"/>
      <point x="169" y="-3"/>
      <point x="131" y="2"/>
      <point x="86" y="14" type="curve"/>
      <point x="112" y="197" type="line" smooth="yes"/>
      <point x="137" y="370"/>
      <point x="203" y="463"/>
      <point x="314" y="463" type="curve" smooth="yes"/>
      <point x="410" y="463"/>
      <point x="467" y="395"/>
      <point x="467" y="284" type="curve" smooth="yes"/>
      <point x="467" y="120"/>
      <point x="359" y="-3"/>
    </contour>
  </outline>
</glyph>
<glyph name="c" format="2">
  <advance width="452"/>
  <unicode hex="0063"/>
  <anchor x="301" y="446" name="top"/>
  <anchor x="237" y="16" name="bottom"/>
  <outline>
    <contour>
      <point x="273" y="-8" type="curve" smooth="yes"/>
      <point x="322" y="-8"/>
      <point x="370" y="6"/>
      <point x="413" y="35" type="curve"/>
      <point x="414" y="44" type="line"/>
      <point x="371" y="15"/>
      <point x="323" y="-1"/>
      <point x="273" y="-1" type="curve" smooth="yes"/>
      <point x="163" y="-1"/>
      <point x="95" y="74"/>
      <point x="95" y="195" type="curve" smooth="yes"/>
      <point x="95" y="349"/>
      <point x="192" y="463"/>
      <point x="327" y="463" type="curve" smooth="yes"/>
      <point x="374" y="463"/>
      <point x="414" y="454"/>
      <point x="462" y="424" type="curve"/>
      <point x="463" y="432" type="line"/>
      <point x="417" y="459"/>
      <point x="379" y="470"/>
      <point x="327" y="470" type="curve" smooth="yes"/>
      <point x="186" y="470"/>
      <point x="87" y="353"/>
      <point x="87" y="195" type="curve" smooth="yes"/>
      <point x="87" y="70"/>
      <point x="158" y="-8"/>
    </contour>
  </outline>
</glyph>
<glyph name="d" format="2">
  <advance width="501"/>
  <unicode hex="0064"/>
  <anchor x="633" y="708" name="caron.vert"/>
  <outline>
    <contour>
      <point x="234" y="-8" type="curve" smooth="yes"/>
      <point x="328" y="-8"/>
      <point x="401" y="76"/>
      <point x="437" y="187" type="curve"/>
      <point x="427" y="123" type="line" smooth="yes"/>
      <point x="420" y="76"/>
      <point x="417" y="35"/>
      <point x="417" y="0" type="curve"/>
      <point x="425" y="0" type="line"/>
      <point x="425" y="34"/>
      <point x="428" y="75"/>
      <point x="435" y="123" type="curve" smooth="yes"/>
      <point x="520" y="724" type="line"/>
      <point x="512" y="724" type="line"/>
      <point x="474" y="454" type="line"/>
      <point x="436" y="465"/>
      <point x="399" y="470"/>
      <point x="364" y="470" type="curve" smooth="yes"/>
      <point x="207" y="470"/>
      <point x="84" y="337"/>
      <point x="84" y="176" type="curve" smooth="yes"/>
      <point x="84" y="68"/>
      <point x="147" y="-8"/>
    </contour>
    <contour>
      <point x="234" y="-1" type="curve" smooth="yes"/>
      <point x="152" y="-1"/>
      <point x="92" y="72"/>
      <point x="92" y="176" type="curve" smooth="yes"/>
      <point x="92" y="333"/>
      <point x="213" y="463"/>
      <point x="364" y="463" type="curve" smooth="yes"/>
      <point x="398" y="463"/>
      <point x="435" y="458"/>
      <point x="473" y="447" type="curve"/>
      <point x="447" y="263" type="line" smooth="yes"/>
      <point x="426" y="112"/>
      <point x="338" y="-1"/>
    </contour>
  </outline>
</glyph>
<glyph name="e" format="2">
  <advance width="455"/>
  <unicode hex="0065"/>
  <anchor x="299" y="446" name="top"/>
  <outline>
    <contour>
      <point x="273" y="-8" type="curve" smooth="yes"/>
      <point x="320" y="-8"/>
      <point x="364" y="5"/>
      <point x="404" y="31" type="curve"/>
      <point x="405" y="40" type="line"/>
      <point x="364" y="13"/>
      <point x="319" y="-1"/>
      <point x="273" y="-1" type="curve" smooth="yes"/>
      <point x="163" y="-1"/>
      <point x="95" y="74"/>
      <point x="95" y="195" type="curve" smooth="yes"/>
      <point x="95" y="196" type="line" smooth="yes"/>
      <point x="95" y="345"/>
      <point x="197" y="463"/>
      <point x="325" y="463" type="curve" smooth="yes"/>
      <point x="389" y="463"/>
      <point x="428" y="429"/>
      <point x="428" y="375" type="curve" smooth="yes"/>
      <point x="428" y="291"/>
      <point x="346" y="250"/>
      <point x="147" y="239" type="curve" smooth="yes"/>
      <point x="96" y="236" type="line"/>
      <point x="96" y="229" type="line"/>
      <point x="147" y="232" type="line" smooth="yes"/>
      <point x="352" y="244"/>
      <point x="436" y="286"/>
      <point x="436" y="375" type="curve" smooth="yes"/>
      <point x="436" y="434"/>
      <point x="394" y="470"/>
      <point x="325" y="470" type="curve" smooth="yes"/>
      <point x="193" y="470"/>
      <point x="87" y="349"/>
      <point x="87" y="195" type="curve" smooth="yes"/>
      <point x="87" y="70"/>
      <point x="158" y="-8"/>
    </contour>
  </outline>
</glyph>
<glyph name="f" format="2">
  <advance width="237"/>
  <unicode hex="0066"/>
  <outline>
    <contour>
      <point x="112" y="0" type="line"/>
      <point x="120" y="0" type="line"/>
      <point x="184" y="455" type="line"/>
      <point x="288" y="455" type="line"/>
      <point x="289" y="462" type="line"/>
      <point x="185" y="462" type="line"/>
      <point x="203" y="593" type="line" smooth="yes"/>
      <point x="215" y="681"/>
      <point x="259" y="725"/>
      <point x="335" y="725" type="curve" smooth="yes"/>
      <point x="362" y="725"/>
      <point x="391" y="718"/>
      <point x="417" y="706" type="curve"/>
      <point x="418" y="713" type="line"/>
      <point x="392" y="725"/>
      <point x="362" y="732"/>
      <point x="335" y="732" type="curve" smooth="yes"/>
      <point x="254" y="732"/>
      <point x="208" y="685"/>
      <point x="195" y="593" type="curve" smooth="yes"/>
      <point x="177" y="462" type="line"/>
      <point x="97" y="462" type="line"/>
      <point x="96" y="455" type="line"/>
      <point x="176" y="455" type="line"/>
    </contour>
  </outline>
</glyph>
<glyph name="g" format="2">
  <advance width="495"/>
  <unicode hex="0067"/>
  <anchor x="317" y="446" name="top"/>
  <outline>
    <contour>
      <point x="206" y="-224" type="curve" smooth="yes"/>
      <point x="312" y="-224"/>
      <point x="396" y="-160"/>
      <point x="420" y="8" type="curve" smooth="yes"/>
      <point x="482" y="451" type="line"/>
      <point x="440" y="465"/>
      <point x="404" y="470"/>
      <point x="364" y="470" type="curve" smooth="yes"/>
      <point x="207" y="470"/>
      <point x="84" y="336"/>
      <point x="84" y="176" type="curve" smooth="yes"/>
      <point x="84" y="71"/>
      <point x="147" y="-8"/>
      <point x="234" y="-8" type="curve" smooth="yes"/>
      <point x="328" y="-8"/>
      <point x="401" y="76"/>
      <point x="437" y="187" type="curve"/>
      <point x="412" y="9" type="line" smooth="yes"/>
      <point x="388" y="-163"/>
      <point x="302" y="-216"/>
      <point x="206" y="-216" type="curve" smooth="yes"/>
      <point x="150" y="-216"/>
      <point x="88" y="-198"/>
      <point x="42" y="-169" type="curve"/>
      <point x="41" y="-177" type="line"/>
      <point x="87" y="-206"/>
      <point x="149" y="-224"/>
    </contour>
    <contour>
      <point x="234" y="-1" type="curve" smooth="yes"/>
      <point x="152" y="-1"/>
      <point x="92" y="75"/>
      <point x="92" y="176" type="curve" smooth="yes"/>
      <point x="92" y="332"/>
      <point x="212" y="463"/>
      <point x="364" y="463" type="curve" smooth="yes"/>
      <point x="406" y="463"/>
      <point x="439" y="457"/>
      <point x="473" y="446" type="curve"/>
      <point x="447" y="263" type="line" smooth="yes"/>
      <point x="426" y="112"/>
      <point x="338" y="-1"/>
    </contour>
  </outline>
</glyph>
<glyph name="h" format="2">
  <advance width="469"/>
  <unicode hex="0068"/>
  <anchor x="171" y="646" name="top"/>
  <outline>
    <contour>
      <point x="76" y="0" type="line"/>
      <point x="84" y="0" type="line"/>
      <point x="112" y="199" type="line" smooth="yes"/>
      <point x="135" y="362"/>
      <point x="210" y="463"/>
      <point x="311" y="463" type="curve" smooth="yes"/>
      <point x="395" y="463"/>
      <point x="447" y="394"/>
      <point x="429" y="294" type="curve" smooth="yes"/>
      <point x="399" y="123" type="line" smooth="yes"/>
      <point x="392" y="81"/>
      <point x="389" y="50"/>
      <point x="389" y="0" type="curve"/>
      <point x="397" y="0" type="line"/>
      <point x="397" y="49"/>
      <point x="400" y="81"/>
      <point x="407" y="123" type="curve" smooth="yes"/>
      <point x="437" y="294" type="line" smooth="yes"/>
      <point x="455" y="398"/>
      <point x="400" y="470"/>
      <point x="311" y="470" type="curve" smooth="yes"/>
      <point x="218" y="470"/>
      <point x="154" y="392"/>
      <point x="124" y="289" type="curve"/>
      <point x="129" y="321"/>
      <point x="132" y="343"/>
      <point x="134" y="357" type="curve" smooth="yes"/>
      <point x="186" y="724" type="line"/>
      <point x="178" y="724" type="line"/>
    </contour>
  </outline>
</glyph>
<glyph name="i" format="2">
  <advance width="172"/>
  <unicode hex="0069"/>
  <anchor x="148" y="446" name="top"/>
  <anchor x="97" y="16" name="ogonek"/>
  <outline>
    <contour>
      <point x="88" y="0" type="curve"/>
      <point x="96" y="0" type="line"/>
      <point x="96" y="49"/>
      <point x="100" y="81"/>
      <point x="106" y="123" type="curve" smooth="yes"/>
      <point x="154" y="462" type="line"/>
      <point x="146" y="462" type="line"/>
      <point x="98" y="123" type="line" smooth="yes"/>
      <point x="92" y="81"/>
      <point x="88" y="50"/>
    </contour>
    <contour>
      <point x="168" y="658" type="line"/>
      <point x="188" y="658" type="line"/>
      <point x="191" y="678" type="line"/>
      <point x="171" y="678" type="line"/>
    </contour>
  </outline>
</glyph>
<glyph name="j" format="2">
  <advance width="175"/>
  <unicode hex="006A"/>
  <anchor x="137" y="446" name="top"/>
  <outline>
    <contour>
      <point x="-43" y="-220" type="line" smooth="yes"/>
      <point x="28" y="-220"/>
      <point x="69" y="-171"/>
      <point x="84" y="-67" type="curve" smooth="yes"/>
      <point x="158" y="462" type="line"/>
      <point x="150" y="462" type="line"/>
      <point x="76" y="-67" type="line" smooth="yes"/>
      <point x="62" y="-164"/>
      <point x="23" y="-213"/>
      <point x="-42" y="-213" type="curve" smooth="yes"/>
      <point x="-50" y="-213" type="line"/>
      <point x="-51" y="-220" type="line"/>
    </contour>
    <contour>
      <point x="171" y="658" type="line"/>
      <point x="191" y="658" type="line"/>
      <point x="194" y="678" type="line"/>
      <point x="174" y="678" type="line"/>
    </contour>
  </outline>
</glyph>
<glyph name="k" format="2">
  <advance width="403"/>
  <unicode hex="006B"/>
  <anchor x="213" y="16" name="bottom"/>
  <outline>
    <contour>
      <point x="76" y="0" type="line"/>
      <point x="84" y="0" type="line"/>
      <point x="118" y="241" type="line"/>
      <point x="115" y="241" type="line"/>
      <point x="360" y="0" type="line"/>
      <point x="371" y="0" type="line"/>
      <point x="123" y="244" type="line"/>
      <point x="121" y="241" type="line"/>
      <point x="240" y="299"/>
      <point x="338" y="374"/>
      <point x="412" y="462" type="curve"/>
      <point x="402" y="462" type="line"/>
      <point x="329" y="376"/>
      <point x="234" y="304"/>
      <point x="117" y="247" type="curve"/>
      <point x="119" y="247" type="line"/>
      <point x="186" y="724" type="line"/>
      <point x="178" y="724" type="line"/>
    </contour>
  </outline>
</glyph>
<glyph name="l" format="2">
  <advance width="168"/>
  <unicode hex="006C"/>
  <anchor x="180" y="708" name="top"/>
  <anchor x="314" y="709" name="caron.vert"/>
  <anchor x="89" y="16" name="bottom"/>
  <outline>
    <contour>
      <point x="84" y="0" type="curve"/>
      <point x="92" y="0" type="line"/>
      <point x="92" y="49"/>
      <point x="96" y="81"/>
      <point x="102" y="123" type="curve" smooth="yes"/>
      <point x="186" y="724" type="line"/>
      <point x="178" y="724" type="line"/>
      <point x="94" y="123" type="line" smooth="yes"/>
      <point x="88" y="81"/>
      <point x="84" y="50"/>
    </contour>
  </outline>
</glyph>
<glyph name="m" format="2">
  <advance width="777"/>
  <unicode hex="006D"/>
  <outline>
    <contour>
      <point x="82" y="0" type="line"/>
      <point x="90" y="0" type="line"/>
      <point x="118" y="199" type="line" smooth="yes"/>
      <point x="141" y="362"/>
      <point x="213" y="463"/>
      <point x="315" y="463" type="curve" smooth="yes"/>
      <point x="401" y="463"/>
      <point x="445" y="395"/>
      <point x="430" y="285" type="curve" smooth="yes"/>
      <point x="390" y="0" type="line"/>
      <point x="398" y="0" type="line"/>
      <point x="426" y="199" type="line" smooth="yes"/>
      <point x="449" y="360"/>
      <point x="520" y="463"/>
      <point x="621" y="463" type="curve" smooth="yes"/>
      <point x="705" y="463"/>
      <point x="755" y="394"/>
      <point x="737" y="294" type="curve" smooth="yes"/>
      <point x="707" y="123" type="line" smooth="yes"/>
      <point x="700" y="81"/>
      <point x="697" y="50"/>
      <point x="697" y="0" type="curve"/>
      <point x="705" y="0" type="line"/>
      <point x="705" y="49"/>
      <point x="708" y="81"/>
      <point x="715" y="123" type="curve" smooth="yes"/>
      <point x="745" y="294" type="line" smooth="yes"/>
      <point x="763" y="398"/>
      <point x="710" y="470"/>
      <point x="621" y="470" type="curve" smooth="yes"/>
      <point x="537" y="470"/>
      <point x="475" y="408"/>
      <point x="436" y="287" type="curve"/>
      <point x="438" y="287" type="line"/>
      <point x="454" y="400"/>
      <point x="407" y="470"/>
      <point x="315" y="470" type="curve" smooth="yes"/>
      <point x="222" y="470"/>
      <point x="159" y="392"/>
      <point x="130" y="289" type="curve"/>
      <point x="140" y="357" type="line" smooth="yes"/>
      <point x="146" y="401"/>
      <point x="149" y="431"/>
      <point x="149" y="462" type="curve"/>
      <point x="141" y="462" type="line"/>
      <point x="141" y="431"/>
      <point x="138" y="401"/>
      <point x="132" y="357" type="curve" smooth="yes"/>
    </contour>
  </outline>
</glyph>
<glyph name="n" format="2">
  <advance width="471"/>
  <unicode hex="006E"/>
  <anchor x="318" y="446" name="top"/>
  <anchor x="246" y="16" name="bottom"/>
  <outline>
    <contour>
      <point x="82" y="0" type="line"/>
      <point x="90" y="0" type="line"/>
      <point x="118" y="199" type="line" smooth="yes"/>
      <point x="141" y="362"/>
      <point x="213" y="463"/>
      <point x="315" y="463" type="curve" smooth="yes"/>
      <point x="399" y="463"/>
      <point x="449" y="394"/>
      <point x="431" y="294" type="curve" smooth="yes"/>
      <point x="401" y="123" type="line" smooth="yes"/>
      <point x="394" y="81"/>
      <point x="391" y="50"/>
      <point x="391" y="0" type="curve"/>
      <point x="399" y="0" type="line"/>
      <point x="399" y="49"/>
      <point x="402" y="81"/>
      <point x="409" y="123" type="curve" smooth="yes"/>
      <point x="439" y="294" type="line" smooth="yes"/>
      <point x="457" y="398"/>
      <point x="404" y="470"/>
      <point x="315" y="470" type="curve" smooth="yes"/>
      <point x="222" y="470"/>
      <point x="160" y="392"/>
      <point x="130" y="289" type="curve"/>
      <point x="140" y="357" type="line" smooth="yes"/>
      <point x="146" y="401"/>
      <point x="149" y="431"/>
      <point x="149" y="462" type="curve"/>
      <point x="141" y="462" type="line"/>
      <point x="141" y="431"/>
      <point x="138" y="401"/>
      <point x="132" y="357" type="curve" smooth="yes"/>
    </contour>
  </outline>
</glyph>
<glyph name="o" format="2">
  <advance width="528"/>
  <unicode hex="006F"/>
  <anchor x="316" y="446" name="top"/>
  <outline>
    <contour>
      <point x="275" y="-8" type="curve" smooth="yes"/>
      <point x="407" y="-8"/>
      <point x="506" y="109"/>
      <point x="506" y="267" type="curve" smooth="yes"/>
      <point x="506" y="392"/>
      <point x="426" y="470"/>
      <point x="318" y="470" type="curve" smooth="yes"/>
      <point x="186" y="470"/>
      <point x="87" y="353"/>
      <point x="87" y="195" type="curve" smooth="yes"/>
      <point x="87" y="70"/>
      <point x="167" y="-8"/>
    </contour>
    <contour>
      <point x="275" y="-1" type="curve" smooth="yes"/>
      <point x="164" y="-1"/>
      <point x="95" y="83"/>
      <point x="95" y="195" type="curve" smooth="yes"/>
      <point x="95" y="348"/>
      <point x="190" y="463"/>
      <point x="318" y="463" type="curve" smooth="yes"/>
      <point x="429" y="463"/>
      <point x="498" y="379"/>
      <point x="498" y="267" type="curve" smooth="yes"/>
      <point x="498" y="114"/>
      <point x="403" y="-1"/>
    </contour>
  </outline>
</glyph>
<glyph name="p" format="2">
  <advance width="501"/>
  <unicode hex="0070"/>
  <outline>
    <contour>
      <point x="51" y="-220" type="line"/>
      <point x="59" y="-220" type="line"/>
      <point x="92" y="15" type="line"/>
      <point x="136" y="-2"/>
      <point x="177" y="-10"/>
      <point x="214" y="-10" type="curve" smooth="yes"/>
      <point x="369" y="-10"/>
      <point x="481" y="116"/>
      <point x="481" y="284" type="curve" smooth="yes"/>
      <point x="481" y="399"/>
      <point x="421" y="470"/>
      <point x="320" y="470" type="curve" smooth="yes"/>
      <point x="211" y="470"/>
      <point x="158" y="384"/>
      <point x="130" y="289" type="curve"/>
      <point x="140" y="357" type="line" smooth="yes"/>
      <point x="146" y="401"/>
      <point x="149" y="431"/>
      <point x="149" y="462" type="curve"/>
      <point x="141" y="462" type="line"/>
      <point x="141" y="431"/>
      <point x="138" y="401"/>
      <point x="132" y="357" type="curve" smooth="yes"/>
    </contour>
    <contour>
      <point x="214" y="-3" type="curve" smooth="yes"/>
      <point x="176" y="-3"/>
      <point x="135" y="6"/>
      <point x="93" y="23" type="curve"/>
      <point x="118" y="197" type="line" smooth="yes"/>
      <point x="143" y="370"/>
      <point x="211" y="463"/>
      <point x="320" y="463" type="curve" smooth="yes"/>
      <point x="416" y="463"/>
      <point x="473" y="395"/>
      <point x="473" y="284" type="curve" smooth="yes"/>
      <point x="473" y="120"/>
      <point x="365" y="-3"/>
    </contour>
  </outline>
</glyph>
<glyph name="q" format="2">
  <advance width="495"/>
  <unicode hex="0071"/>
  <outline>
    <contour>
      <point x="380" y="-220" type="line"/>
      <point x="388" y="-220" type="line"/>
      <point x="482" y="451" type="line"/>
      <point x="440" y="465"/>
      <point x="404" y="470"/>
      <point x="364" y="470" type="curve" smooth="yes"/>
      <point x="207" y="470"/>
      <point x="84" y="336"/>
      <point x="84" y="176" type="curve" smooth="yes"/>
      <point x="84" y="71"/>
      <point x="147" y="-8"/>
      <point x="234" y="-8" type="curve" smooth="yes"/>
      <point x="328" y="-8"/>
      <point x="401" y="76"/>
      <point x="437" y="187" type="curve"/>
    </contour>
    <contour>
      <point x="234" y="-1" type="curve" smooth="yes"/>
      <point x="152" y="-1"/>
      <point x="92" y="75"/>
      <point x="92" y="176" type="curve" smooth="yes"/>
      <point x="92" y="332"/>
      <point x="212" y="463"/>
      <point x="364" y="463" type="curve" smooth="yes"/>
      <point x="406" y="463"/>
      <point x="439" y="457"/>
      <point x="473" y="446" type="curve"/>
      <point x="447" y="263" type="line" smooth="yes"/>
      <point x="426" y="113"/>
      <point x="338" y="-1"/>
    </contour>
  </outline>
</glyph>
<glyph name="r" format="2">
  <advance width="284"/>
  <unicode hex="0072"/>
  <anchor x="220" y="446" name="top"/>
  <anchor x="89" y="16" name="bottom"/>
  <outline>
    <contour>
      <point x="82" y="0" type="line"/>
      <point x="90" y="0" type="line"/>
      <point x="118" y="199" type="line" smooth="yes"/>
      <point x="143" y="374"/>
      <point x="209" y="462"/>
      <point x="281" y="462" type="curve" smooth="yes"/>
      <point x="296" y="462"/>
      <point x="310" y="460"/>
      <point x="328" y="454" type="curve"/>
      <point x="329" y="463" type="line"/>
      <point x="312" y="468"/>
      <point x="298" y="470"/>
      <point x="281" y="470" type="curve" smooth="yes"/>
      <point x="216" y="470"/>
      <point x="164" y="410"/>
      <point x="131" y="295" type="curve"/>
      <point x="140" y="357" type="line" smooth="yes"/>
      <point x="146" y="401"/>
      <point x="149" y="431"/>
      <point x="149" y="462" type="curve"/>
      <point x="141" y="462" type="line"/>
      <point x="141" y="431"/>
      <point x="138" y="401"/>
      <point x="132" y="357" type="curve" smooth="yes"/>
    </contour>
  </outline>
</glyph>
<glyph name="s" format="2">
  <advance width="378"/>
  <unicode hex="0073"/>
  <anchor x="240" y="446" name="top"/>
  <anchor x="203" y="16" name="bottom"/>
  <outline>
    <contour>
      <point x="201" y="-7" type="curve" smooth="yes"/>
      <point x="285" y="-7"/>
      <point x="336" y="43"/>
      <point x="336" y="110" type="curve" smooth="yes"/>
      <point x="336" y="160"/>
      <point x="313" y="200"/>
      <point x="226" y="245" type="curve" smooth="yes"/>
      <point x="212" y="252" type="line" smooth="yes"/>
      <point x="146" y="285"/>
      <point x="127" y="316"/>
      <point x="127" y="359" type="curve" smooth="yes"/>
      <point x="127" y="424"/>
      <point x="182" y="463"/>
      <point x="255" y="463" type="curve" smooth="yes"/>
      <point x="296" y="463"/>
      <point x="341" y="449"/>
      <point x="372" y="426" type="curve"/>
      <point x="373" y="435" type="line"/>
      <point x="342" y="457"/>
      <point x="296" y="470"/>
      <point x="255" y="470" type="curve" smooth="yes"/>
      <point x="171" y="470"/>
      <point x="119" y="422"/>
      <point x="119" y="359" type="curve" smooth="yes"/>
      <point x="119" y="311"/>
      <point x="143" y="277"/>
      <point x="208" y="245" type="curve" smooth="yes"/>
      <point x="222" y="238" type="line" smooth="yes"/>
      <point x="305" y="195"/>
      <point x="328" y="159"/>
      <point x="328" y="110" type="curve" smooth="yes"/>
      <point x="328" y="41"/>
      <point x="274" y="0"/>
      <point x="201" y="0" type="curve" smooth="yes"/>
      <point x="151" y="0"/>
      <point x="98" y="19"/>
      <point x="63" y="47" type="curve"/>
      <point x="62" y="38" type="line"/>
      <point x="98" y="10"/>
      <point x="153" y="-7"/>
    </contour>
  </outline>
</glyph>
<glyph name="t" format="2">
  <advance width="279"/>
  <unicode hex="0074"/>
  <anchor x="184" y="16" name="bottom"/>
  <anchor x="336" y="708" name="caron.vert"/>
  <outline>
    <contour>
      <point x="182" y="-8" type="curve" smooth="yes"/>
      <point x="206" y="-8"/>
      <point x="230" y="-1"/>
      <point x="255" y="15" type="curve"/>
      <point x="256" y="24" type="line"/>
      <point x="231" y="7"/>
      <point x="206" y="-1"/>
      <point x="182" y="-1" type="curve" smooth="yes"/>
      <point x="135" y="-1"/>
      <point x="113" y="33"/>
      <point x="121" y="89" type="curve" smooth="yes"/>
      <point x="172" y="455" type="line"/>
      <point x="302" y="455" type="line"/>
      <point x="303" y="462" type="line"/>
      <point x="173" y="462" type="line"/>
      <point x="196" y="624" type="line"/>
      <point x="188" y="624" type="line"/>
      <point x="165" y="462" type="line"/>
      <point x="89" y="462" type="line"/>
      <point x="88" y="455" type="line"/>
      <point x="164" y="455" type="line"/>
      <point x="113" y="89" type="line" smooth="yes"/>
      <point x="104" y="28"/>
      <point x="131" y="-8"/>
    </contour>
  </outline>
</glyph>
<glyph name="u" format="2">
  <advance width="470"/>
  <unicode hex="0075"/>
  <anchor x="288" y="446" name="top"/>
  <anchor x="390" y="16" name="ogonek"/>
  <outline>
    <contour>
      <point x="220" y="-8" type="curve" smooth="yes"/>
      <point x="313" y="-8"/>
      <point x="376" y="70"/>
      <point x="405" y="173" type="curve"/>
      <point x="397" y="123" type="line" smooth="yes"/>
      <point x="391" y="84"/>
      <point x="386" y="40"/>
      <point x="386" y="0" type="curve"/>
      <point x="394" y="0" type="line"/>
      <point x="394" y="41"/>
      <point x="399" y="80"/>
      <point x="405" y="123" type="curve" smooth="yes"/>
      <point x="453" y="462" type="line"/>
      <point x="445" y="462" type="line"/>
      <point x="417" y="263" type="line" smooth="yes"/>
      <point x="394" y="100"/>
      <point x="322" y="-1"/>
      <point x="220" y="-1" type="curve" smooth="yes"/>
      <point x="139" y="-1"/>
      <point x="86" y="64"/>
      <point x="104" y="168" type="curve" smooth="yes"/>
      <point x="137" y="357" type="line" smooth="yes"/>
      <point x="143" y="392"/>
      <point x="146" y="422"/>
      <point x="146" y="462" type="curve"/>
      <point x="138" y="462" type="line"/>
      <point x="138" y="422"/>
      <point x="135" y="392"/>
      <point x="129" y="357" type="curve" smooth="yes"/>
      <point x="96" y="168" type="line" smooth="yes"/>
      <point x="78" y="67"/>
      <point x="126" y="-8"/>
    </contour>
  </outline>
</glyph>
<glyph name="v" format="2">
  <advance width="407"/>
  <unicode hex="0076"/>
  <outline>
    <contour>
      <point x="199" y="0" type="line"/>
      <point x="207" y="0" type="line"/>
      <point x="306" y="124"/>
      <point x="390" y="289"/>
      <point x="436" y="462" type="curve"/>
      <point x="429" y="462" type="line"/>
      <point x="384" y="297"/>
      <point x="303" y="133"/>
      <point x="201" y="2" type="curve"/>
      <point x="206" y="1" type="line"/>
      <point x="189" y="70" type="line"/>
      <point x="87" y="462" type="line"/>
      <point x="79" y="462" type="line"/>
    </contour>
  </outline>
</glyph>
<glyph name="w" format="2">
  <advance width="700"/>
  <unicode hex="0077"/>
  <anchor x="409" y="446" name="top"/>
  <outline>
    <contour>
      <point x="179" y="0" type="line"/>
      <point x="187" y="0" type="line"/>
      <point x="276" y="150"/>
      <point x="352" y="307"/>
      <point x="412" y="460" type="curve"/>
      <point x="408" y="460" type="line"/>
      <point x="424" y="389" type="line"/>
      <point x="508" y="0" type="line"/>
      <point x="517" y="0" type="line"/>
      <point x="606" y="129"/>
      <point x="679" y="285"/>
      <point x="729" y="462" type="curve"/>
      <point x="722" y="462" type="line"/>
      <point x="672" y="288"/>
      <point x="599" y="134"/>
      <point x="509" y="2" type="curve"/>
      <point x="516" y="3" type="line"/>
      <point x="501" y="73" type="line"/>
      <point x="416" y="462" type="line"/>
      <point x="403" y="462" type="line"/>
      <point x="345" y="312"/>
      <point x="270" y="157"/>
      <point x="180" y="2" type="curve"/>
      <point x="186" y="3" type="line"/>
      <point x="172" y="72" type="line"/>
      <point x="89" y="462" type="line"/>
      <point x="81" y="462" type="line"/>
    </contour>
  </outline>
</glyph>
<glyph name="x" format="2">
  <advance width="417"/>
  <unicode hex="0078"/>
  <outline>
    <contour>
      <point x="36" y="0" type="line"/>
      <point x="46" y="0" type="line"/>
      <point x="200" y="183" type="line"/>
      <point x="244" y="235" type="line"/>
      <point x="247" y="239" type="line"/>
      <point x="433" y="462" type="line"/>
      <point x="424" y="462" type="line"/>
      <point x="290" y="302" type="line"/>
      <point x="242" y="244" type="line"/>
      <point x="239" y="240" type="line"/>
    </contour>
    <contour>
      <point x="372" y="0" type="line"/>
      <point x="381" y="0" type="line"/>
      <point x="247" y="241" type="line"/>
      <point x="246" y="242" type="line"/>
      <point x="213" y="302" type="line"/>
      <point x="126" y="462" type="line"/>
      <point x="117" y="462" type="line"/>
      <point x="239" y="238" type="line"/>
      <point x="240" y="237" type="line"/>
      <point x="271" y="182" type="line"/>
    </contour>
  </outline>
</glyph>
<glyph name="y" format="2">
  <advance width="418"/>
  <unicode hex="0079"/>
  <anchor x="245" y="446" name="top"/>
  <outline>
    <contour>
      <point x="216" y="-42" type="line"/>
      <point x="216" y="-37" type="line"/>
      <point x="129" y="-154"/>
      <point x="29" y="-213"/>
      <point x="-82" y="-213" type="curve" smooth="yes"/>
      <point x="-90" y="-213" type="line"/>
      <point x="-91" y="-220" type="line"/>
      <point x="-83" y="-220" type="line" smooth="yes"/>
      <point x="33" y="-220"/>
      <point x="129" y="-163"/>
      <point x="221" y="-42" type="curve" smooth="yes"/>
      <point x="302" y="66"/>
      <point x="379" y="235"/>
      <point x="447" y="462" type="curve"/>
      <point x="439" y="462" type="line"/>
      <point x="372" y="239"/>
      <point x="297" y="72"/>
      <point x="218" y="-35" type="curve"/>
      <point x="220" y="-35" type="line"/>
      <point x="192" y="72" type="line"/>
      <point x="88" y="462" type="line"/>
      <point x="80" y="462" type="line"/>
      <point x="214" y="-42" type="line"/>
    </contour>
  </outline>
</glyph>
<glyph name="z" format="2">
  <advance width="419"/>
  <unicode hex="007A"/>
  <anchor x="255" y="446" name="top"/>
  <outline>
    <contour>
      <point x="52" y="0" type="line"/>
      <point x="367" y="0" type="line"/>
      <point x="368" y="7" type="line"/>
      <point x="57" y="7" type="line"/>
      <point x="59" y="2" type="line"/>
      <point x="101" y="53" type="line"/>
      <point x="431" y="455" type="line"/>
      <point x="432" y="462" type="line"/>
      <point x="117" y="462" type="line"/>
      <point x="116" y="455" type="line"/>
      <point x="427" y="455" type="line"/>
      <point x="426" y="461" type="line"/>
      <point x="384" y="410" type="line"/>
      <point x="53" y="7" type="line"/>
    </contour>
  </outline>
</glyph>
<glyph name="braceleft" format="2">
  <advance width="431"/>
  <unicode hex="007B"/>
  <outline>
    <contour>
      <point x="329" y="-220" type="curve" smooth="yes"/>
      <point x="360" y="-220" type="line"/>
      <point x="361" y="-213" type="line"/>
      <point x="330" y="-213" type="line" smooth="yes"/>
      <point x="227" y="-213"/>
      <point x="172" y="-144"/>
      <point x="195" y="-34" type="curve" smooth="yes"/>
      <point x="220" y="88" type="line" smooth="yes"/>
      <point x="238" y="174"/>
      <point x="187" y="240"/>
      <point x="100" y="253" type="curve"/>
      <point x="99" y="250" type="line"/>
      <point x="190" y="263"/>
      <point x="259" y="325"/>
      <point x="266" y="416" type="curve" smooth="yes"/>
      <point x="276" y="538" type="line" smooth="yes"/>
      <point x="284" y="645"/>
      <point x="358" y="717"/>
      <point x="460" y="717" type="curve" smooth="yes"/>
      <point x="492" y="717" type="line"/>
      <point x="493" y="724" type="line"/>
      <point x="461" y="724" type="line" smooth="yes"/>
      <point x="354" y="724"/>
      <point x="276" y="650"/>
      <point x="268" y="538" type="curve" smooth="yes"/>
      <point x="258" y="416" type="line" smooth="yes"/>
      <point x="253" y="331"/>
      <point x="186" y="269"/>
      <point x="96" y="256" type="curve"/>
      <point x="95" y="247" type="line"/>
      <point x="181" y="234"/>
      <point x="230" y="173"/>
      <point x="212" y="88" type="curve" smooth="yes"/>
      <point x="187" y="-34" type="line" smooth="yes"/>
      <point x="164" y="-146"/>
      <point x="221" y="-220"/>
    </contour>
  </outline>
</glyph>
<glyph name="braceright" format="2">
  <advance width="431"/>
  <unicode hex="007D"/>
  <outline>
    <contour>
      <point x="9" y="-220" type="line"/>
      <point x="41" y="-220" type="line" smooth="yes"/>
      <point x="148" y="-220"/>
      <point x="226" y="-146"/>
      <point x="234" y="-34" type="curve" smooth="yes"/>
      <point x="244" y="88" type="line" smooth="yes"/>
      <point x="251" y="173"/>
      <point x="314" y="235"/>
      <point x="406" y="248" type="curve"/>
      <point x="407" y="257" type="line"/>
      <point x="321" y="271"/>
      <point x="272" y="331"/>
      <point x="290" y="416" type="curve" smooth="yes"/>
      <point x="315" y="538" type="line" smooth="yes"/>
      <point x="338" y="650"/>
      <point x="281" y="724"/>
      <point x="173" y="724" type="curve" smooth="yes"/>
      <point x="142" y="724" type="line"/>
      <point x="141" y="717" type="line"/>
      <point x="172" y="717" type="line" smooth="yes"/>
      <point x="277" y="717"/>
      <point x="329" y="647"/>
      <point x="307" y="538" type="curve" smooth="yes"/>
      <point x="282" y="416" type="line" smooth="yes"/>
      <point x="265" y="331"/>
      <point x="315" y="266"/>
      <point x="402" y="251" type="curve"/>
      <point x="403" y="254" type="line"/>
      <point x="312" y="242"/>
      <point x="243" y="178"/>
      <point x="236" y="88" type="curve" smooth="yes"/>
      <point x="226" y="-34" type="line" smooth="yes"/>
      <point x="218" y="-141"/>
      <point x="144" y="-213"/>
      <point x="42" y="-213" type="curve" smooth="yes"/>
      <point x="10" y="-213" type="line"/>
    </contour>
  </outline>
</glyph>
<glyph name="exclamdown" format="2">
  <advance width="184"/>
  <unicode hex="00A1"/>
  <outline>
    <contour>
      <point x="52" y="-236" type="line"/>
      <point x="60" y="-236" type="line"/>
      <point x="138" y="298" type="line"/>
      <point x="130" y="298" type="line"/>
    </contour>
    <contour>
      <point x="142" y="438" type="line"/>
      <point x="166" y="438" type="line"/>
      <point x="169" y="462" type="line"/>
      <point x="145" y="462" type="line"/>
    </contour>
  </outline>
</glyph>
<glyph name="questiondown" format="2">
  <advance width="393"/>
  <unicode hex="00BF"/>
  <outline>
    <contour>
      <point x="270" y="438" type="line"/>
      <point x="294" y="438" type="line"/>
      <point x="297" y="462" type="line"/>
      <point x="273" y="462" type="line"/>
    </contour>
    <contour>
      <point x="172" y="-240" type="curve" smooth="yes"/>
      <point x="227" y="-240"/>
      <point x="287" y="-217"/>
      <point x="328" y="-181" type="curve"/>
      <point x="329" y="-171" type="line"/>
      <point x="286" y="-209"/>
      <point x="226" y="-233"/>
      <point x="172" y="-233" type="curve" smooth="yes"/>
      <point x="87" y="-233"/>
      <point x="34" y="-188"/>
      <point x="34" y="-113" type="curve" smooth="yes"/>
      <point x="34" y="-55"/>
      <point x="66" y="-4"/>
      <point x="146" y="75" type="curve" smooth="yes"/>
      <point x="221" y="149"/>
      <point x="251" y="199"/>
      <point x="264" y="298" type="curve"/>
      <point x="257" y="298" type="line"/>
      <point x="243" y="203"/>
      <point x="214" y="152"/>
      <point x="141" y="80" type="curve" smooth="yes"/>
      <point x="58" y="-2"/>
      <point x="26" y="-54"/>
      <point x="26" y="-113" type="curve" smooth="yes"/>
      <point x="26" y="-192"/>
      <point x="82" y="-240"/>
    </contour>
  </outline>
</glyph>
<glyph name="acutecmb" format="2">
  <unicode hex="0301"/>
  <anchor x="63" y="446" name="_top"/>
  <anchor x="5" y="16" name="_bottom"/>
  <outline>
    <contour>
      <point x="50" y="524" type="line"/>
      <point x="59" y="524" type="line"/>
      <point x="164" y="649" type="line"/>
      <point x="154" y="649" type="line"/>
    </contour>
  </outline>
</glyph>
<glyph name="dieresiscmb" format="2">
  <unicode hex="0308"/>
  <anchor x="63" y="446" name="_top"/>
  <anchor x="3" y="16" name="_bottom"/>
  <outline>
    <contour>
      <point x="5" y="548" type="line"/>
      <point x="25" y="548" type="line"/>
      <point x="28" y="568" type="line"/>
      <point x="8" y="568" type="line"/>
    </contour>
    <contour>
      <point x="129" y="548" type="line"/>
      <point x="149" y="548" type="line"/>
      <point x="152" y="568" type="line"/>
      <point x="132" y="568" type="line"/>
    </contour>
  </outline>
</glyph>
<glyph name="Delta" format="2">
  <advance width="560"/>
  <unicode hex="0394"/>
  <unicode hex="2206"/>
  <outline>
    <contour>
      <point x="48" y="0" type="line"/>
      <point x="372" y="682" type="line"/>
      <point x="381" y="682" type="line"/>
      <point x="512" y="0" type="line"/>
    </contour>
    <contour>
      <point x="61" y="8" type="line"/>
      <point x="502" y="8" type="line"/>
      <point x="375" y="672" type="line"/>
    </contour>
  </outline>
</glyph>
<glyph name="pi" format="2">
  <advance width="477"/>
  <unicode hex="03C0"/>
  <outline>
    <contour>
      <point x="120" y="0" type="line"/>
      <point x="128" y="0" type="line"/>
      <point x="192" y="455" type="line"/>
      <point x="413" y="455" type="line"/>
      <point x="367" y="124" type="line" smooth="yes"/>
      <point x="360" y="74"/>
      <point x="356" y="32"/>
      <point x="356" y="0" type="curve"/>
      <point x="364" y="0" type="line"/>
      <point x="364" y="33"/>
      <point x="368" y="75"/>
      <point x="375" y="124" type="curve" smooth="yes"/>
      <point x="421" y="455" type="line"/>
      <point x="501" y="455" type="line"/>
      <point x="502" y="462" type="line"/>
      <point x="105" y="462" type="line"/>
      <point x="104" y="455" type="line"/>
      <point x="184" y="455" type="line"/>
    </contour>
  </outline>
</glyph>
<glyph name="endash" format="2">
  <advance width="540"/>
  <unicode hex="2013"/>
  <outline>
    <contour>
      <point x="82" y="216" type="line"/>
      <point x="518" y="216" type="line"/>
      <point x="519" y="223" type="line"/>
      <point x="83" y="223" type="line"/>
    </contour>
  </outline>
</glyph>
<glyph name="emdash" format="2">
  <advance width="1040"/>
  <unicode hex="2014"/>
  <outline>
    <contour>
      <point x="82" y="216" type="line"/>
      <point x="1018" y="216" type="line"/>
      <point x="1019" y="223" type="line"/>
      <point x="83" y="223" type="line"/>
    </contour>
  </outline>
</glyph>
<glyph name="quoteleft" format="2">
  <advance width="139"/>
  <unicode hex="2018"/>
  <outline>
    <contour>
      <point x="142" y="560" type="line"/>
      <point x="150" y="560" type="line"/>
      <point x="157" y="608" type="line" smooth="yes"/>
      <point x="164" y="654"/>
      <point x="178" y="687"/>
      <point x="208" y="722" type="curve"/>
      <point x="202" y="726" type="line"/>
      <point x="171" y="692"/>
      <point x="156" y="658"/>
      <point x="149" y="608" type="curve" smooth="yes"/>
    </contour>
  </outline>
</glyph>
<glyph name="quoteright" format="2">
  <advance width="139"/>
  <unicode hex="2019"/>
  <outline>
    <contour>
      <point x="117" y="558" type="line"/>
      <point x="148" y="592"/>
      <point x="163" y="626"/>
      <point x="170" y="676" type="curve" smooth="yes"/>
      <point x="177" y="724" type="line"/>
      <point x="169" y="724" type="line"/>
      <point x="162" y="676" type="line" smooth="yes"/>
      <point x="155" y="630"/>
      <point x="141" y="597"/>
      <point x="111" y="562" type="curve"/>
    </contour>
  </outline>
</glyph>
<glyph name="quotesinglbase" format="2">
  <advance width="139"/>
  <unicode hex="201A"/>
  <outline>
    <contour>
      <point x="23" y="-113" type="line"/>
      <point x="54" y="-79"/>
      <point x="70" y="-45"/>
      <point x="76" y="5" type="curve" smooth="yes"/>
      <point x="84" y="61" type="line"/>
      <point x="76" y="61" type="line"/>
      <point x="68" y="5" type="line" smooth="yes"/>
      <point x="62" y="-41"/>
      <point x="47" y="-74"/>
      <point x="17" y="-109" type="curve"/>
    </contour>
  </outline>
</glyph>
<glyph name="quotedblleft" format="2">
  <advance width="218"/>
  <unicode hex="201C"/>
  <outline>
    <contour>
      <point x="111" y="560" type="line"/>
      <point x="119" y="560" type="line"/>
      <point x="126" y="608" type="line" smooth="yes"/>
      <point x="133" y="653"/>
      <point x="145" y="685"/>
      <point x="176" y="722" type="curve"/>
      <point x="171" y="726" type="line"/>
      <point x="133" y="684"/>
      <point x="124" y="648"/>
      <point x="118" y="608" type="curve" smooth="yes"/>
    </contour>
    <contour>
      <point x="191" y="560" type="line"/>
      <point x="199" y="560" type="line"/>
      <point x="206" y="608" type="line" smooth="yes"/>
      <point x="213" y="653"/>
      <point x="225" y="685"/>
      <point x="256" y="722" type="curve"/>
      <point x="251" y="726" type="line"/>
      <point x="213" y="684"/>
      <point x="204" y="648"/>
      <point x="198" y="608" type="curve" smooth="yes"/>
    </contour>
  </outline>
</glyph>
<glyph name="quotedblright" format="2">
  <advance width="211"/>
  <unicode hex="201D"/>
  <outline>
    <contour>
      <point x="117" y="558" type="line"/>
      <point x="148" y="592"/>
      <point x="163" y="626"/>
      <point x="170" y="676" type="curve" smooth="yes"/>
      <point x="177" y="724" type="line"/>
      <point x="169" y="724" type="line"/>
      <point x="162" y="676" type="line" smooth="yes"/>
      <point x="155" y="630"/>
      <point x="141" y="597"/>
      <point x="111" y="562" type="curve"/>
    </contour>
    <contour>
      <point x="189" y="558" type="line"/>
      <point x="220" y="592"/>
      <point x="235" y="626"/>
      <point x="242" y="676" type="curve" smooth="yes"/>
      <point x="249" y="724" type="line"/>
      <point x="241" y="724" type="line"/>
      <point x="234" y="676" type="line" smooth="yes"/>
      <point x="227" y="630"/>
      <point x="213" y="597"/>
      <point x="183" y="562" type="curve"/>
    </contour>
  </outline>
</glyph>
<glyph name="quotedblbase" format="2">
  <advance width="219"/>
  <unicode hex="201E"/>
  <outline>
    <contour>
      <point x="23" y="-113" type="line"/>
      <point x="54" y="-79"/>
      <point x="70" y="-45"/>
      <point x="76" y="5" type="curve" smooth="yes"/>
      <point x="84" y="61" type="line"/>
      <point x="76" y="61" type="line"/>
      <point x="68" y="5" type="line" smooth="yes"/>
      <point x="62" y="-41"/>
      <point x="47" y="-74"/>
      <point x="17" y="-109" type="curve"/>
    </contour>
    <contour>
      <point x="103" y="-113" type="line"/>
      <point x="134" y="-79"/>
      <point x="150" y="-45"/>
      <point x="156" y="5" type="curve" smooth="yes"/>
      <point x="164" y="61" type="line"/>
      <point x="156" y="61" type="line"/>
      <point x="148" y="5" type="line" smooth="yes"/>
      <point x="142" y="-41"/>
      <point x="127" y="-74"/>
      <point x="97" y="-109" type="curve"/>
    </contour>
  </outline>
</glyph>
<glyph name="Euro" format="2">
  <advance width="716"/>
  <unicode hex="20AC"/>
  <outline>
    <contour>
      <point x="80" y="372" type="line"/>
      <point x="364" y="372" type="line"/>
      <point x="365" y="379" type="line"/>
      <point x="81" y="379" type="line"/>
    </contour>
    <contour>
      <point x="67" y="280" type="line"/>
      <point x="351" y="280" type="line"/>
      <point x="352" y="287" type="line"/>
      <point x="68" y="287" type="line"/>
    </contour>
    <component base="C" xOffset="37"/>
  </outline>
</glyph>
<glyph name="Omega" format="2">
  <advance width="726"/>
  <unicode hex="A7B6"/>
  <unicode hex="2126"/>
  <outline>
    <contour>
      <point x="75" y="0" type="line"/>
      <point x="322" y="0" type="line"/>
      <point x="335" y="91" type="line"/>
      <point x="198" y="118"/>
      <point x="113" y="227"/>
      <point x="113" y="350" type="curve" smooth="yes"/>
      <point x="113" y="527"/>
      <point x="249" y="659"/>
      <point x="431" y="659" type="curve" smooth="yes"/>
      <point x="595" y="659"/>
      <point x="716" y="540"/>
      <point x="716" y="380" type="curve" smooth="yes"/>
      <point x="716" y="234"/>
      <point x="603" y="111"/>
      <point x="419" y="91" type="curve"/>
      <point x="406" y="0" type="line"/>
      <point x="653" y="0" type="line"/>
      <point x="654" y="8" type="line"/>
      <point x="409" y="8" type="line"/>
      <point x="413" y="1" type="line"/>
      <point x="426" y="91" type="line"/>
      <point x="418" y="84" type="line"/>
      <point x="593" y="102"/>
      <point x="724" y="216"/>
      <point x="724" y="380" type="curve" smooth="yes"/>
      <point x="724" y="544"/>
      <point x="600" y="666"/>
      <point x="432" y="666" type="curve" smooth="yes"/>
      <point x="245" y="666"/>
      <point x="105" y="531"/>
      <point x="105" y="350" type="curve" smooth="yes"/>
      <point x="105" y="213"/>
      <point x="203" y="109"/>
      <point x="334" y="84" type="curve"/>
      <point x="328" y="91" type="line"/>
      <point x="315" y="1" type="line"/>
      <point x="321" y="8" type="line"/>
      <point x="76" y="8" type="line"/>
    </contour>
  </outline>
</glyph>
<glyph name="Euro.lc" format="2">
  <advance width="489"/>
  <outline>
    <contour>
      <point x="57" y="180" type="line"/>
      <point x="339" y="180" type="line"/>
      <point x="340" y="187" type="line"/>
      <point x="58" y="187" type="line"/>
    </contour>
    <contour>
      <point x="70" y="269" type="line"/>
      <point x="352" y="269" type="line"/>
      <point x="353" y="276" type="line"/>
      <point x="71" y="276" type="line"/>
    </contour>
    <component base="c" xOffset="32" yOffset="-4"/>
  </outline>
</glyph>
<glyph name="J.base" format="2">
  <advance width="237"/>
  <anchor x="231" y="642" name="top"/>
  <outline>
    <contour>
      <point x="38" y="-16" type="line" smooth="yes"/>
      <point x="106" y="-16"/>
      <point x="148" y="23"/>
      <point x="159" y="101" type="curve" smooth="yes"/>
      <point x="237" y="658" type="line"/>
      <point x="229" y="658" type="line"/>
      <point x="151" y="101" type="line" smooth="yes"/>
      <point x="141" y="28"/>
      <point x="102" y="-9"/>
      <point x="39" y="-9" type="curve" smooth="yes"/>
      <point x="31" y="-9" type="line"/>
      <point x="30" y="-16" type="line"/>
    </contour>
  </outline>
</glyph>
<glyph name="S.sc" format="2">
  <advance width="406"/>
  <anchor x="274" y="492" name="top"/>
  <anchor x="201" y="16" name="bottom"/>
  <outline>
    <contour>
      <point x="208" y="-8" type="curve" smooth="yes"/>
      <point x="290" y="-8"/>
      <point x="363" y="40"/>
      <point x="363" y="131" type="curve" smooth="yes"/>
      <point x="363" y="189"/>
      <point x="328" y="227"/>
      <point x="243" y="263" type="curve" smooth="yes"/>
      <point x="226" y="270" type="line" smooth="yes"/>
      <point x="156" y="300"/>
      <point x="128" y="331"/>
      <point x="128" y="381" type="curve" smooth="yes"/>
      <point x="128" y="458"/>
      <point x="194" y="509"/>
      <point x="275" y="509" type="curve" smooth="yes"/>
      <point x="320" y="509"/>
      <point x="359" y="497"/>
      <point x="409" y="469" type="curve"/>
      <point x="410" y="477" type="line"/>
      <point x="359" y="505"/>
      <point x="320" y="516"/>
      <point x="275" y="516" type="curve" smooth="yes"/>
      <point x="191" y="516"/>
      <point x="120" y="463"/>
      <point x="120" y="381" type="curve" smooth="yes"/>
      <point x="120" y="328"/>
      <point x="147" y="295"/>
      <point x="222" y="263" type="curve" smooth="yes"/>
      <point x="239" y="256" type="line" smooth="yes"/>
      <point x="322" y="221"/>
      <point x="355" y="184"/>
      <point x="355" y="131" type="curve" smooth="yes"/>
      <point x="355" y="45"/>
      <point x="287" y="-1"/>
      <point x="208" y="-1" type="curve" smooth="yes"/>
      <point x="158" y="-1"/>
      <point x="100" y="18"/>
      <point x="66" y="43" type="curve"/>
      <point x="65" y="34" type="line"/>
      <point x="97" y="11"/>
      <point x="155" y="-8"/>
    </contour>
  </outline>
</glyph>
<glyph name="acutecmb.uc" format="2">
  <anchor x="90" y="642" name="_top"/>
  <anchor x="2" y="16" name="_bottom"/>
  <outline>
    <contour>
      <point x="74" y="724" type="line"/>
      <point x="83" y="724" type="line"/>
      <point x="188" y="849" type="line"/>
      <point x="178" y="849" type="line"/>
    </contour>
  </outline>
</glyph>
<glyph name="braceleft.uc" format="2">
  <advance width="404"/>
  <outline>
    <contour>
      <point x="324" y="-64" type="curve" smooth="yes"/>
      <point x="355" y="-64" type="line"/>
      <point x="356" y="-57" type="line"/>
      <point x="325" y="-57" type="line" smooth="yes"/>
      <point x="230" y="-57"/>
      <point x="177" y="3"/>
      <point x="198" y="92" type="curve" smooth="yes"/>
      <point x="219" y="186" type="line" smooth="yes"/>
      <point x="236" y="260"/>
      <point x="192" y="317"/>
      <point x="111" y="331" type="curve"/>
      <point x="110" y="328" type="line"/>
      <point x="195" y="339"/>
      <point x="256" y="397"/>
      <point x="260" y="474" type="curve" smooth="yes"/>
      <point x="265" y="568" type="line" smooth="yes"/>
      <point x="269" y="657"/>
      <point x="339" y="717"/>
      <point x="433" y="717" type="curve" smooth="yes"/>
      <point x="465" y="717" type="line"/>
      <point x="466" y="724" type="line"/>
      <point x="434" y="724" type="line" smooth="yes"/>
      <point x="335" y="724"/>
      <point x="262" y="662"/>
      <point x="257" y="568" type="curve" smooth="yes"/>
      <point x="252" y="474" type="line" smooth="yes"/>
      <point x="247" y="401"/>
      <point x="189" y="345"/>
      <point x="107" y="334" type="curve"/>
      <point x="106" y="325" type="line"/>
      <point x="184" y="311"/>
      <point x="228" y="262"/>
      <point x="211" y="186" type="curve" smooth="yes"/>
      <point x="190" y="92" type="line" smooth="yes"/>
      <point x="169" y="-1"/>
      <point x="224" y="-64"/>
    </contour>
  </outline>
</glyph>
<glyph name="braceright.uc" format="2">
  <advance width="404"/>
  <outline>
    <contour>
      <point x="31" y="-64" type="line"/>
      <point x="63" y="-64" type="line" smooth="yes"/>
      <point x="162" y="-64"/>
      <point x="235" y="-2"/>
      <point x="240" y="92" type="curve" smooth="yes"/>
      <point x="245" y="186" type="line" smooth="yes"/>
      <point x="249" y="259"/>
      <point x="307" y="315"/>
      <point x="390" y="326" type="curve"/>
      <point x="391" y="335" type="line"/>
      <point x="313" y="349"/>
      <point x="269" y="398"/>
      <point x="286" y="474" type="curve" smooth="yes"/>
      <point x="307" y="568" type="line" smooth="yes"/>
      <point x="328" y="661"/>
      <point x="273" y="724"/>
      <point x="173" y="724" type="curve" smooth="yes"/>
      <point x="142" y="724" type="line"/>
      <point x="141" y="717" type="line"/>
      <point x="172" y="717" type="line" smooth="yes"/>
      <point x="267" y="717"/>
      <point x="319" y="657"/>
      <point x="299" y="568" type="curve" smooth="yes"/>
      <point x="278" y="474" type="line" smooth="yes"/>
      <point x="261" y="400"/>
      <point x="305" y="343"/>
      <point x="386" y="329" type="curve"/>
      <point x="387" y="332" type="line"/>
      <point x="302" y="321"/>
      <point x="241" y="263"/>
      <point x="237" y="186" type="curve" smooth="yes"/>
      <point x="232" y="92" type="line" smooth="yes"/>
      <point x="227" y="3"/>
      <point x="158" y="-57"/>
      <point x="64" y="-57" type="curve" smooth="yes"/>
      <point x="32" y="-57" type="line"/>
    </contour>
  </outline>
</glyph>
<glyph name="bracketleft.uc" format="2">
  <advance width="284"/>
  <outline>
    <contour>
      <point x="71" y="-64" type="line"/>
      <point x="215" y="-64" type="line"/>
      <point x="216" y="-57" type="line"/>
      <point x="80" y="-57" type="line"/>
      <point x="189" y="717" type="line"/>
      <point x="325" y="717" type="line"/>
      <point x="326" y="724" type="line"/>
      <point x="182" y="724" type="line"/>
    </contour>
  </outline>
</glyph>
<glyph name="bracketright.uc" format="2">
  <advance width="284"/>
  <outline>
    <contour>
      <point x="51" y="-64" type="line"/>
      <point x="195" y="-64" type="line"/>
      <point x="306" y="724" type="line"/>
      <point x="162" y="724" type="line"/>
      <point x="161" y="717" type="line"/>
      <point x="297" y="717" type="line"/>
      <point x="188" y="-57" type="line"/>
      <point x="52" y="-57" type="line"/>
    </contour>
  </outline>
</glyph>
<glyph name="dieresiscmb.uc" format="2">
  <anchor x="90" y="642" name="_top"/>
  <anchor x="4" y="16" name="_bottom"/>
  <outline>
    <contour>
      <point x="30" y="724" type="line"/>
      <point x="50" y="724" type="line"/>
      <point x="53" y="744" type="line"/>
      <point x="33" y="744" type="line"/>
    </contour>
    <contour>
      <point x="154" y="724" type="line"/>
      <point x="174" y="724" type="line"/>
      <point x="177" y="744" type="line"/>
      <point x="157" y="744" type="line"/>
    </contour>
  </outline>
</glyph>
<glyph name="dollar.lc" format="2">
  <advance width="370"/>
  <anchor x="214" y="457" name="top"/>
  <outline>
    <contour>
      <point x="217" y="241" type="line"/>
      <point x="224" y="241" type="line"/>
      <point x="269" y="562" type="line"/>
      <point x="262" y="562" type="line"/>
    </contour>
    <contour>
      <point x="169" y="-98" type="line"/>
      <point x="176" y="-98" type="line"/>
      <point x="224" y="241" type="line"/>
      <point x="217" y="241" type="line"/>
    </contour>
    <component base="s" xOffset="-4"/>
  </outline>
</glyph>
<glyph name="dollar.lc_AT_weight800" format="2">
  <advance width="370"/>
  <anchor x="218" y="457" name="top"/>
  <outline>
    <contour>
      <point x="244" y="468" type="line"/>
      <point x="251" y="468" type="line"/>
      <point x="264" y="562" type="line"/>
      <point x="257" y="562" type="line"/>
    </contour>
    <contour>
      <point x="165" y="-98" type="line"/>
      <point x="172" y="-98" type="line"/>
      <point x="185" y="-2" type="line"/>
      <point x="178" y="-2" type="line"/>
    </contour>
    <component base="s" xOffset="-4"/>
  </outline>
</glyph>
<glyph name="dollar.sc_AT_weight800" format="2">
  <advance width="390"/>
  <outline>
    <contour>
      <point x="263" y="510" type="line"/>
      <point x="270" y="510" type="line"/>
      <point x="282" y="596" type="line"/>
      <point x="275" y="596" type="line"/>
    </contour>
    <contour>
      <point x="180" y="-86" type="line"/>
      <point x="187" y="-86" type="line"/>
      <point x="198" y="-7" type="line"/>
      <point x="191" y="-7" type="line"/>
    </contour>
    <component base="S.sc" xOffset="-8"/>
  </outline>
</glyph>
<glyph name="dollar_AT_weight800" format="2">
  <advance width="507"/>
  <outline>
    <contour>
      <point x="333" y="662" type="line"/>
      <point x="340" y="662" type="line"/>
      <point x="352" y="748" type="line"/>
      <point x="345" y="748" type="line"/>
    </contour>
    <contour>
      <point x="227" y="-90" type="line"/>
      <point x="234" y="-90" type="line"/>
      <point x="246" y="-4" type="line"/>
      <point x="239" y="-4" type="line"/>
    </contour>
    <component base="S"/>
  </outline>
</glyph>
<glyph name="f.salt_connect" format="2">
  <advance width="253"/>
  <outline>
    <contour>
      <point x="112" y="0" type="line"/>
      <point x="120" y="0" type="line"/>
      <point x="184" y="455" type="line"/>
      <point x="288" y="455" type="line"/>
      <point x="289" y="462" type="line"/>
      <point x="185" y="462" type="line"/>
      <point x="203" y="593" type="line" smooth="yes"/>
      <point x="215" y="681"/>
      <point x="259" y="725"/>
      <point x="335" y="725" type="curve" smooth="yes"/>
      <point x="367" y="725"/>
      <point x="402" y="715"/>
      <point x="431" y="698" type="curve"/>
      <point x="432" y="706" type="line"/>
      <point x="403" y="722"/>
      <point x="367" y="732"/>
      <point x="335" y="732" type="curve" smooth="yes"/>
      <point x="254" y="732"/>
      <point x="208" y="685"/>
      <point x="195" y="593" type="curve" smooth="yes"/>
      <point x="177" y="462" type="line"/>
      <point x="97" y="462" type="line"/>
      <point x="96" y="455" type="line"/>
      <point x="176" y="455" type="line"/>
    </contour>
  </outline>
</glyph>
<glyph name="f.salt_noconnect" format="2">
  <advance width="248"/>
  <outline>
    <contour>
      <point x="122" y="0" type="line"/>
      <point x="130" y="0" type="line"/>
      <point x="194" y="455" type="line"/>
      <point x="288" y="455" type="line"/>
      <point x="289" y="462" type="line"/>
      <point x="194" y="462" type="line"/>
      <point x="222" y="658" type="line" smooth="yes"/>
      <point x="228" y="702"/>
      <point x="249" y="725"/>
      <point x="285" y="725" type="curve" smooth="yes"/>
      <point x="299" y="725"/>
      <point x="312" y="722"/>
      <point x="328" y="714" type="curve"/>
      <point x="329" y="722" type="line"/>
      <point x="310" y="730"/>
      <point x="299" y="732"/>
      <point x="285" y="732" type="curve" smooth="yes"/>
      <point x="245" y="732"/>
      <point x="221" y="707"/>
      <point x="214" y="658" type="curve" smooth="yes"/>
      <point x="186" y="462" type="line"/>
      <point x="97" y="462" type="line"/>
      <point x="96" y="455" type="line"/>
      <point x="186" y="455" type="line"/>
    </contour>
  </outline>
</glyph>
<glyph name="five.dnom" format="2">
  <advance width="295"/>
  <outline>
    <contour>
      <point x="147" y="-8" type="curve" smooth="yes"/>
      <point x="220" y="-8"/>
      <point x="269" y="38"/>
      <point x="269" y="112" type="curve" smooth="yes"/>
      <point x="269" y="173"/>
      <point x="225" y="211"/>
      <point x="155" y="211" type="curve" smooth="yes"/>
      <point x="128" y="211"/>
      <point x="107" y="207"/>
      <point x="81" y="199" type="curve"/>
      <point x="85" y="196" type="line"/>
      <point x="120" y="352" type="line"/>
      <point x="287" y="352" type="line"/>
      <point x="289" y="360" type="line"/>
      <point x="114" y="360" type="line"/>
      <point x="76" y="190" type="line"/>
      <point x="107" y="200"/>
      <point x="130" y="204"/>
      <point x="155" y="204" type="curve" smooth="yes"/>
      <point x="221" y="204"/>
      <point x="261" y="169"/>
      <point x="261" y="112" type="curve" smooth="yes"/>
      <point x="261" y="42"/>
      <point x="215" y="-1"/>
      <point x="147" y="-1" type="curve" smooth="yes"/>
      <point x="107" y="-1"/>
      <point x="70" y="15"/>
      <point x="46" y="40" type="curve"/>
      <point x="45" y="30" type="line"/>
      <point x="69" y="7"/>
      <point x="107" y="-8"/>
    </contour>
  </outline>
</glyph>
<glyph name="five.lc" format="2">
  <advance width="486"/>
  <outline>
    <contour>
      <point x="211" y="-196" type="curve" smooth="yes"/>
      <point x="336" y="-196"/>
      <point x="430" y="-111"/>
      <point x="430" y="15" type="curve" smooth="yes"/>
      <point x="430" y="124"/>
      <point x="356" y="191"/>
      <point x="236" y="191" type="curve" smooth="yes"/>
      <point x="183" y="191"/>
      <point x="145" y="182"/>
      <point x="110" y="169" type="curve"/>
      <point x="115" y="167" type="line"/>
      <point x="179" y="462" type="line"/>
      <point x="471" y="462" type="line"/>
      <point x="472" y="470" type="line"/>
      <point x="173" y="470" type="line"/>
      <point x="106" y="160" type="line"/>
      <point x="144" y="175"/>
      <point x="183" y="184"/>
      <point x="236" y="184" type="curve" smooth="yes"/>
      <point x="351" y="184"/>
      <point x="422" y="120"/>
      <point x="422" y="15" type="curve" smooth="yes"/>
      <point x="422" y="-107"/>
      <point x="331" y="-189"/>
      <point x="211" y="-189" type="curve" smooth="yes"/>
      <point x="144" y="-189"/>
      <point x="79" y="-160"/>
      <point x="40" y="-111" type="curve"/>
      <point x="39" y="-121" type="line"/>
      <point x="73" y="-163"/>
      <point x="139" y="-196"/>
    </contour>
  </outline>
</glyph>
<glyph name="four.dnom" format="2">
  <advance width="318"/>
  <outline>
    <contour>
      <point x="208" y="0" type="line"/>
      <point x="216" y="0" type="line"/>
      <point x="231" y="108" type="line"/>
      <point x="297" y="108" type="line"/>
      <point x="298" y="116" type="line"/>
      <point x="232" y="116" type="line"/>
      <point x="266" y="360" type="line"/>
      <point x="258" y="360" type="line"/>
      <point x="52" y="116" type="line"/>
      <point x="51" y="108" type="line"/>
      <point x="223" y="108" type="line"/>
    </contour>
    <contour>
      <point x="224" y="116" type="line"/>
      <point x="62" y="116" type="line"/>
      <point x="256" y="347" type="line"/>
    </contour>
  </outline>
</glyph>
<glyph name="four.lc" format="2">
  <advance width="490"/>
  <outline>
    <contour>
      <point x="332" y="-195" type="line"/>
      <point x="340" y="-195" type="line"/>
      <point x="367" y="0" type="line"/>
      <point x="470" y="0" type="line"/>
      <point x="471" y="8" type="line"/>
      <point x="368" y="8" type="line"/>
      <point x="433" y="471" type="line"/>
      <point x="426" y="471" type="line"/>
      <point x="41" y="7" type="line"/>
      <point x="40" y="0" type="line"/>
      <point x="359" y="0" type="line"/>
    </contour>
    <contour>
      <point x="360" y="8" type="line"/>
      <point x="52" y="8" type="line"/>
      <point x="423" y="456" type="line"/>
    </contour>
  </outline>
</glyph>
<glyph name="one.dnom" format="2">
  <advance width="271"/>
  <outline>
    <contour>
      <point x="29" y="0" type="line"/>
      <point x="243" y="0" type="line"/>
      <point x="244" y="7" type="line"/>
      <point x="141" y="7" type="line"/>
      <point x="192" y="372" type="line"/>
      <point x="76" y="344" type="line"/>
      <point x="75" y="337" type="line"/>
      <point x="183" y="362" type="line"/>
      <point x="133" y="7" type="line"/>
      <point x="30" y="7" type="line"/>
    </contour>
  </outline>
</glyph>
<glyph name="one.lc" format="2">
  <advance width="389"/>
  <outline>
    <contour>
      <point x="69" y="0" type="line"/>
      <point x="333" y="0" type="line"/>
      <point x="334" y="7" type="line"/>
      <point x="206" y="7" type="line"/>
      <point x="273" y="482" type="line"/>
      <point x="118" y="441" type="line"/>
      <point x="118" y="434" type="line"/>
      <point x="264" y="472" type="line"/>
      <point x="198" y="7" type="line"/>
      <point x="70" y="7" type="line"/>
    </contour>
  </outline>
</glyph>
<glyph name="parenleft.uc" format="2">
  <advance width="275"/>
  <outline>
    <contour>
      <point x="214" y="-64" type="curve"/>
      <point x="223" y="-64" type="line"/>
      <point x="163" y="46"/>
      <point x="132" y="158"/>
      <point x="132" y="269" type="curve" smooth="yes"/>
      <point x="132" y="440"/>
      <point x="201" y="594"/>
      <point x="337" y="724" type="curve"/>
      <point x="326" y="724" type="line"/>
      <point x="192" y="596"/>
      <point x="124" y="442"/>
      <point x="124" y="269" type="curve" smooth="yes"/>
      <point x="124" y="156"/>
      <point x="154" y="44"/>
    </contour>
  </outline>
</glyph>
<glyph name="parenright.uc" format="2">
  <advance width="275"/>
  <outline>
    <contour>
      <point x="31" y="-64" type="curve"/>
      <point x="42" y="-64" type="line"/>
      <point x="176" y="64"/>
      <point x="244" y="218"/>
      <point x="244" y="391" type="curve" smooth="yes"/>
      <point x="244" y="504"/>
      <point x="214" y="616"/>
      <point x="154" y="724" type="curve"/>
      <point x="145" y="724" type="line"/>
      <point x="205" y="614"/>
      <point x="236" y="502"/>
      <point x="236" y="391" type="curve" smooth="yes"/>
      <point x="236" y="220"/>
      <point x="167" y="66"/>
    </contour>
  </outline>
</glyph>
<glyph name="seven.dnom" format="2">
  <advance width="315"/>
  <outline>
    <contour>
      <point x="113" y="0" type="line"/>
      <point x="122" y="0" type="line"/>
      <point x="325" y="353" type="line"/>
      <point x="326" y="360" type="line"/>
      <point x="91" y="360" type="line"/>
      <point x="90" y="353" type="line"/>
      <point x="319" y="353" type="line"/>
      <point x="319" y="356" type="line"/>
    </contour>
  </outline>
</glyph>
<glyph name="seven.lc" format="2">
  <advance width="458"/>
  <outline>
    <contour>
      <point x="145" y="-188" type="line" smooth="yes"/>
      <point x="153" y="-188" type="line" smooth="yes"/>
      <point x="479" y="462" type="line" smooth="yes"/>
      <point x="480" y="470" type="line" smooth="yes"/>
      <point x="119" y="470" type="line" smooth="yes"/>
      <point x="117" y="462" type="line" smooth="yes"/>
      <point x="475" y="462" type="line" smooth="yes"/>
      <point x="473" y="466" type="line" smooth="yes"/>
    </contour>
  </outline>
</glyph>
<glyph name="three.dnom" format="2">
  <advance width="295"/>
  <outline>
    <contour>
      <point x="148" y="-8" type="curve" smooth="yes"/>
      <point x="217" y="-8"/>
      <point x="267" y="32"/>
      <point x="267" y="97" type="curve" smooth="yes"/>
      <point x="267" y="154"/>
      <point x="223" y="189"/>
      <point x="152" y="189" type="curve"/>
      <point x="151" y="184" type="line"/>
      <point x="236" y="184"/>
      <point x="289" y="223"/>
      <point x="289" y="286" type="curve" smooth="yes"/>
      <point x="289" y="336"/>
      <point x="251" y="368"/>
      <point x="196" y="368" type="curve" smooth="yes"/>
      <point x="161" y="368"/>
      <point x="127" y="355"/>
      <point x="105" y="336" type="curve"/>
      <point x="104" y="327" type="line"/>
      <point x="130" y="348"/>
      <point x="162" y="361"/>
      <point x="196" y="361" type="curve" smooth="yes"/>
      <point x="247" y="361"/>
      <point x="281" y="332"/>
      <point x="281" y="286" type="curve" smooth="yes"/>
      <point x="281" y="227"/>
      <point x="231" y="190"/>
      <point x="151" y="190" type="curve" smooth="yes"/>
      <point x="139" y="190" type="line"/>
      <point x="138" y="183" type="line"/>
      <point x="152" y="183" type="line" smooth="yes"/>
      <point x="218" y="183"/>
      <point x="259" y="150"/>
      <point x="259" y="97" type="curve" smooth="yes"/>
      <point x="259" y="41"/>
      <point x="217" y="-1"/>
      <point x="148" y="-1" type="curve" smooth="yes"/>
      <point x="112" y="-1"/>
      <point x="74" y="15"/>
      <point x="46" y="41" type="curve"/>
      <point x="45" y="32" type="line"/>
      <point x="72" y="7"/>
      <point x="113" y="-8"/>
    </contour>
  </outline>
</glyph>
<glyph name="three.lc" format="2">
  <advance width="494"/>
  <outline>
    <contour>
      <point x="231" y="-198" type="curve" smooth="yes"/>
      <point x="346" y="-198"/>
      <point x="434" y="-121"/>
      <point x="434" y="-17" type="curve" smooth="yes"/>
      <point x="434" y="87"/>
      <point x="362" y="152"/>
      <point x="221" y="152" type="curve"/>
      <point x="222" y="147" type="line"/>
      <point x="363" y="147"/>
      <point x="468" y="225"/>
      <point x="468" y="330" type="curve" smooth="yes"/>
      <point x="468" y="416"/>
      <point x="403" y="476"/>
      <point x="306" y="476" type="curve" smooth="yes"/>
      <point x="251" y="476"/>
      <point x="194" y="457"/>
      <point x="144" y="419" type="curve"/>
      <point x="143" y="410" type="line"/>
      <point x="195" y="449"/>
      <point x="253" y="469"/>
      <point x="306" y="469" type="curve" smooth="yes"/>
      <point x="398" y="469"/>
      <point x="460" y="412"/>
      <point x="460" y="330" type="curve" smooth="yes"/>
      <point x="460" y="229"/>
      <point x="359" y="153"/>
      <point x="223" y="153" type="curve" smooth="yes"/>
      <point x="200" y="153" type="line"/>
      <point x="199" y="146" type="line"/>
      <point x="221" y="146" type="line" smooth="yes"/>
      <point x="357" y="146"/>
      <point x="426" y="84"/>
      <point x="426" y="-17" type="curve" smooth="yes"/>
      <point x="426" y="-117"/>
      <point x="342" y="-191"/>
      <point x="231" y="-191" type="curve" smooth="yes"/>
      <point x="159" y="-191"/>
      <point x="91" y="-163"/>
      <point x="40" y="-117" type="curve"/>
      <point x="39" y="-126" type="line"/>
      <point x="95" y="-174"/>
      <point x="162" y="-198"/>
    </contour>
  </outline>
</glyph>
<glyph name="two.dnom" format="2">
  <advance width="317"/>
  <outline>
    <contour>
      <point x="40" y="0" type="line"/>
      <point x="277" y="0" type="line"/>
      <point x="278" y="8" type="line"/>
      <point x="49" y="8" type="line"/>
      <point x="46" y="1" type="line"/>
      <point x="249" y="141"/>
      <point x="300" y="193"/>
      <point x="300" y="263" type="curve" smooth="yes"/>
      <point x="300" y="328"/>
      <point x="253" y="368"/>
      <point x="190" y="368" type="curve" smooth="yes"/>
      <point x="158" y="368"/>
      <point x="128" y="358"/>
      <point x="101" y="338" type="curve"/>
      <point x="100" y="329" type="line"/>
      <point x="129" y="351"/>
      <point x="160" y="361"/>
      <point x="190" y="361" type="curve" smooth="yes"/>
      <point x="253" y="361"/>
      <point x="292" y="319"/>
      <point x="292" y="263" type="curve" smooth="yes"/>
      <point x="292" y="196"/>
      <point x="242" y="146"/>
      <point x="41" y="6" type="curve"/>
    </contour>
  </outline>
</glyph>
<glyph name="two.lc" format="2">
  <advance width="415"/>
  <outline>
    <contour>
      <point x="60" y="0" type="line"/>
      <point x="355" y="0" type="line"/>
      <point x="356" y="8" type="line"/>
      <point x="68" y="8" type="line"/>
      <point x="68" y="4" type="line"/>
      <point x="286" y="133"/>
      <point x="397" y="249"/>
      <point x="397" y="348" type="curve" smooth="yes"/>
      <point x="397" y="428"/>
      <point x="347" y="476"/>
      <point x="263" y="476" type="curve" smooth="yes"/>
      <point x="214" y="476"/>
      <point x="167" y="460"/>
      <point x="126" y="429" type="curve"/>
      <point x="125" y="419" type="line"/>
      <point x="168" y="452"/>
      <point x="215" y="469"/>
      <point x="263" y="469" type="curve" smooth="yes"/>
      <point x="342" y="469"/>
      <point x="389" y="423"/>
      <point x="389" y="348" type="curve" smooth="yes"/>
      <point x="389" y="251"/>
      <point x="278" y="137"/>
      <point x="61" y="9" type="curve"/>
    </contour>
  </outline>
</glyph>
<glyph name="zero.dnom" format="2">
  <advance width="386"/>
  <anchor x="296" y="457" name="top"/>
  <outline>
    <contour>
      <point x="192" y="-8" type="curve" smooth="yes"/>
      <point x="286" y="-8"/>
      <point x="361" y="90"/>
      <point x="361" y="216" type="curve" smooth="yes"/>
      <point x="361" y="310"/>
      <point x="309" y="368"/>
      <point x="239" y="368" type="curve" smooth="yes"/>
      <point x="145" y="368"/>
      <point x="71" y="271"/>
      <point x="71" y="145" type="curve" smooth="yes"/>
      <point x="71" y="51"/>
      <point x="123" y="-8"/>
    </contour>
    <contour>
      <point x="192" y="-1" type="curve" smooth="yes"/>
      <point x="122" y="-1"/>
      <point x="79" y="61"/>
      <point x="79" y="145" type="curve" smooth="yes"/>
      <point x="79" y="267"/>
      <point x="150" y="361"/>
      <point x="239" y="361" type="curve" smooth="yes"/>
      <point x="309" y="361"/>
      <point x="353" y="299"/>
      <point x="353" y="216" type="curve" smooth="yes"/>
      <point x="353" y="94"/>
      <point x="281" y="-1"/>
    </contour>
  </outline>
</glyph>
<glyph name="zero.lc" format="2">
  <advance width="553"/>
  <outline>
    <contour>
      <point x="290" y="-12" type="curve" smooth="yes"/>
      <point x="428" y="-12"/>
      <point x="530" y="104"/>
      <point x="530" y="260" type="curve" smooth="yes"/>
      <point x="530" y="386"/>
      <point x="444" y="479"/>
      <point x="328" y="479" type="curve" smooth="yes"/>
      <point x="191" y="479"/>
      <point x="88" y="363"/>
      <point x="88" y="206" type="curve" smooth="yes"/>
      <point x="88" y="78"/>
      <point x="173" y="-12"/>
    </contour>
    <contour>
      <point x="291" y="-5" type="curve" smooth="yes"/>
      <point x="178" y="-5"/>
      <point x="96" y="82"/>
      <point x="96" y="206" type="curve" smooth="yes"/>
      <point x="96" y="358"/>
      <point x="195" y="472"/>
      <point x="328" y="472" type="curve" smooth="yes"/>
      <point x="439" y="472"/>
      <point x="522" y="382"/>
      <point x="522" y="260" type="curve" smooth="yes"/>
      <point x="522" y="109"/>
      <point x="424" y="-5"/>
    </contour>
  </outline>
</glyph>
<glyph name="zero.lc_salt_slash" format="2">
  <advance width="553"/>
  <outline>
    <contour>
      <point x="290" y="-12" type="curve" smooth="yes"/>
      <point x="428" y="-12"/>
      <point x="530" y="104"/>
      <point x="530" y="260" type="curve" smooth="yes"/>
      <point x="530" y="386"/>
      <point x="444" y="479"/>
      <point x="328" y="479" type="curve" smooth="yes"/>
      <point x="191" y="479"/>
      <point x="88" y="363"/>
      <point x="88" y="206" type="curve" smooth="yes"/>
      <point x="88" y="78"/>
      <point x="173" y="-12"/>
    </contour>
    <contour>
      <point x="96" y="206" type="curve" smooth="yes"/>
      <point x="96" y="358"/>
      <point x="195" y="472"/>
      <point x="328" y="472" type="curve" smooth="yes"/>
      <point x="370" y="472"/>
      <point x="408" y="459"/>
      <point x="439" y="437" type="curve"/>
      <point x="159" y="46" type="line"/>
      <point x="120" y="83"/>
      <point x="96" y="139"/>
    </contour>
    <contour>
      <point x="291" y="-5" type="curve" smooth="yes"/>
      <point x="242" y="-5"/>
      <point x="198" y="12"/>
      <point x="165" y="41" type="curve"/>
      <point x="444" y="432" type="line"/>
      <point x="492" y="395"/>
      <point x="522" y="333"/>
      <point x="522" y="260" type="curve" smooth="yes"/>
      <point x="522" y="109"/>
      <point x="424" y="-5"/>
    </contour>
  </outline>
</glyph>
<glyph name="zero.salt_slash" format="2">
  <advance width="553"/>
  <outline>
    <contour>
      <point x="282" y="-8" type="curve" smooth="yes"/>
      <point x="431" y="-8"/>
      <point x="548" y="177"/>
      <point x="548" y="414" type="curve" smooth="yes"/>
      <point x="548" y="570"/>
      <point x="477" y="666"/>
      <point x="363" y="666" type="curve" smooth="yes"/>
      <point x="214" y="666"/>
      <point x="97" y="481"/>
      <point x="97" y="244" type="curve" smooth="yes"/>
      <point x="97" y="88"/>
      <point x="168" y="-8"/>
    </contour>
    <contour>
      <point x="105" y="244" type="curve" smooth="yes"/>
      <point x="105" y="477"/>
      <point x="219" y="658"/>
      <point x="363" y="658" type="curve" smooth="yes"/>
      <point x="408" y="658"/>
      <point x="445" y="642"/>
      <point x="474" y="614" type="curve"/>
      <point x="160" y="54" type="line"/>
      <point x="125" y="97"/>
      <point x="105" y="162"/>
    </contour>
    <contour>
      <point x="282" y="-1" type="curve" smooth="yes"/>
      <point x="235" y="-1"/>
      <point x="195" y="16"/>
      <point x="166" y="49" type="curve"/>
      <point x="480" y="608" type="line"/>
      <point x="518" y="566"/>
      <point x="540" y="499"/>
      <point x="540" y="414" type="curve" smooth="yes"/>
      <point x="540" y="181"/>
      <point x="426" y="-1"/>
    </contour>
  </outline>
</glyph>
<glyph name="zero.sc_salt_slash" format="2">
  <advance width="463"/>
  <outline>
    <contour>
      <point x="239" y="-8" type="curve" smooth="yes"/>
      <point x="364" y="-8"/>
      <point x="458" y="131"/>
      <point x="458" y="317" type="curve" smooth="yes"/>
      <point x="458" y="449"/>
      <point x="395" y="516"/>
      <point x="294" y="516" type="curve" smooth="yes"/>
      <point x="169" y="516"/>
      <point x="76" y="376"/>
      <point x="76" y="191" type="curve" smooth="yes"/>
      <point x="76" y="67"/>
      <point x="131" y="-8"/>
    </contour>
    <contour>
      <point x="84" y="191" type="curve" smooth="yes"/>
      <point x="84" y="372"/>
      <point x="174" y="509"/>
      <point x="294" y="509" type="curve" smooth="yes"/>
      <point x="332" y="509"/>
      <point x="362" y="499"/>
      <point x="386" y="481" type="curve"/>
      <point x="137" y="35" type="line"/>
      <point x="103" y="67"/>
      <point x="84" y="119"/>
    </contour>
    <contour>
      <point x="239" y="-1" type="curve" smooth="yes"/>
      <point x="200" y="-1"/>
      <point x="168" y="9"/>
      <point x="143" y="30" type="curve"/>
      <point x="392" y="477" type="line"/>
      <point x="431" y="444"/>
      <point x="450" y="389"/>
      <point x="450" y="317" type="curve" smooth="yes"/>
      <point x="450" y="135"/>
      <point x="360" y="-1"/>
    </contour>
  </outline>
</glyph>
<glyph name="zero.tab_lc_salt_slash" format="2">
  <advance width="650"/>
  <outline>
    <contour>
      <point x="339" y="-12" type="curve" smooth="yes"/>
      <point x="476" y="-12"/>
      <point x="579" y="104"/>
      <point x="579" y="260" type="curve" smooth="yes"/>
      <point x="579" y="386"/>
      <point x="492" y="479"/>
      <point x="377" y="479" type="curve" smooth="yes"/>
      <point x="239" y="479"/>
      <point x="137" y="363"/>
      <point x="137" y="206" type="curve" smooth="yes"/>
      <point x="137" y="78"/>
      <point x="221" y="-12"/>
    </contour>
    <contour>
      <point x="145" y="206" type="curve" smooth="yes"/>
      <point x="145" y="358"/>
      <point x="243" y="472"/>
      <point x="377" y="472" type="curve" smooth="yes"/>
      <point x="421" y="472"/>
      <point x="461" y="458"/>
      <point x="493" y="433" type="curve"/>
      <point x="213" y="41" type="line"/>
      <point x="171" y="78"/>
      <point x="145" y="136"/>
    </contour>
    <contour>
      <point x="340" y="-5" type="curve" smooth="yes"/>
      <point x="293" y="-5"/>
      <point x="251" y="10"/>
      <point x="219" y="36" type="curve"/>
      <point x="498" y="428" type="line"/>
      <point x="543" y="390"/>
      <point x="571" y="330"/>
      <point x="571" y="260" type="curve" smooth="yes"/>
      <point x="571" y="109"/>
      <point x="472" y="-5"/>
    </contour>
  </outline>
</glyph>
<glyph name="zero.tab_salt_slash" format="2">
  <advance width="650"/>
  <outline>
    <contour>
      <point x="337" y="-8" type="curve" smooth="yes"/>
      <point x="485" y="-8"/>
      <point x="596" y="176"/>
      <point x="596" y="422" type="curve" smooth="yes"/>
      <point x="596" y="573"/>
      <point x="523" y="666"/>
      <point x="406" y="666" type="curve" smooth="yes"/>
      <point x="258" y="666"/>
      <point x="147" y="482"/>
      <point x="147" y="237" type="curve" smooth="yes"/>
      <point x="147" y="85"/>
      <point x="220" y="-8"/>
    </contour>
    <contour>
      <point x="155" y="237" type="curve" smooth="yes"/>
      <point x="155" y="478"/>
      <point x="262" y="659"/>
      <point x="406" y="659" type="curve" smooth="yes"/>
      <point x="455" y="659"/>
      <point x="495" y="642"/>
      <point x="526" y="611" type="curve"/>
      <point x="212" y="52" type="line"/>
      <point x="175" y="93"/>
      <point x="155" y="157"/>
    </contour>
    <contour>
      <point x="337" y="-1" type="curve" smooth="yes"/>
      <point x="288" y="-1"/>
      <point x="248" y="16"/>
      <point x="217" y="47" type="curve"/>
      <point x="531" y="606" type="line"/>
      <point x="568" y="565"/>
      <point x="588" y="502"/>
      <point x="588" y="422" type="curve" smooth="yes"/>
      <point x="588" y="180"/>
      <point x="481" y="-1"/>
    </contour>
  </outline>
</glyph>
